<svg id="Слой_2" data-name="Слой 2" xmlns="http://www.w3.org/2000/svg" viewBox="0 0 74.48 75"><defs><style>.cls-1{fill:#115071;}.cls-2{fill:#fc9500;}.cls-3{fill:none;stroke:#115071;stroke-linecap:round;stroke-miterlimit:10;}</style></defs><g id="Графический_дизайн" data-name="Графический дизайн"><rect class="cls-1" x="19.69" y="28.79" width="2.42" height="51.63" transform="translate(-33.21 31.83) rotate(-46.12)"/><circle class="cls-1" cx="39.76" cy="73" r="2"/><circle class="cls-1" cx="2" cy="36.69" r="2"/><path class="cls-1" d="M18,26.93a22.17,22.17,0,0,0,2.9,27.67A22.32,22.32,0,0,0,34.57,61,23.21,23.21,0,0,0,49.4,57.35a23.3,23.3,0,0,1-36.6-16A24.22,24.22,0,0,1,16,25.65h0a1.21,1.21,0,0,1,2.08,1.25Z" transform="translate(-0.26)"/><rect class="cls-2" x="17.43" y="18.82" width="5.26" height="5.26" rx="0.7" transform="translate(-9.55 20.46) rotate(-45)"/><path class="cls-1" d="M20.06,26.09a1.9,1.9,0,0,1-1.35-.56L16,22.8a1.91,1.91,0,0,1,0-2.7l2.74-2.73a1.9,1.9,0,0,1,2.7,0l2.73,2.73a1.91,1.91,0,0,1,0,2.7l-2.73,2.73a1.9,1.9,0,0,1-1.35.56Zm-2-4.64,2,2,2-2-2-2Z" transform="translate(-0.26)"/><rect class="cls-2" x="49.69" y="51.42" width="5.24" height="5.24" rx="0.67" transform="translate(-23.15 52.82) rotate(-45)"/><path class="cls-1" d="M52.31,58.68A1.86,1.86,0,0,1,51,58.13l-2.76-2.76a1.87,1.87,0,0,1,0-2.66L51,50a1.91,1.91,0,0,1,2.65,0l2.76,2.76a1.87,1.87,0,0,1,0,2.65l-2.76,2.76A1.84,1.84,0,0,1,52.31,58.68Zm-.38-2.26Zm.77,0ZM50.32,54l2,2,2-2-2-2Zm4.37.39Zm-4.75,0h0Zm0-.77Zm4.76,0Zm-2.76-2h0Zm.77,0Z" transform="translate(-0.26)"/><rect class="cls-2" x="17.41" y="51.96" width="5.3" height="5.3" rx="0.77" transform="translate(-33 30.18) rotate(-45)"/><path class="cls-1" d="M20.06,59.25a1.94,1.94,0,0,1-1.4-.58L16,56a2,2,0,0,1,0-2.8l2.66-2.66a2,2,0,0,1,2.8,0l2.66,2.66a2,2,0,0,1,0,2.8h0l-2.66,2.66A2,2,0,0,1,20.06,59.25Zm-2-4.64,2,2,2-2-2-2Z" transform="translate(-0.26)"/><path class="cls-1" d="M17,26.29" transform="translate(-0.26)"/><path class="cls-1" d="M55.94,28.73Q54.41,34,52.86,39.32L28.08,49q6.14-6.91,12.24-13.82l.14-.24a3.26,3.26,0,0,0,2,.66,3.38,3.38,0,1,0-3.38-3.37,3.25,3.25,0,0,0,.64,2c-.06.06-.14.11-.2.16L26.15,47.13,26.06,47Q30.64,34.5,35.22,22l10.52-3.08Z" transform="translate(-0.26)"/><path class="cls-3" d="M61.06,26.06" transform="translate(-0.26)"/><rect class="cls-2" x="53.54" y="4.14" width="17.04" height="17.04" rx="1.39" transform="translate(8.97 47.59) rotate(-45)"/><path class="cls-1" d="M62.06,25.34a2.61,2.61,0,0,1-1.84-.76L50.14,14.5a2.58,2.58,0,0,1,0-3.68L60.22.74a2.65,2.65,0,0,1,3.68,0L74,10.82a2.61,2.61,0,0,1,0,3.68L63.9,24.58A2.64,2.64,0,0,1,62.06,25.34Zm0-22.94a.15.15,0,0,0-.13.05L51.85,12.53a.21.21,0,0,0,0,.26L61.93,22.86a.17.17,0,0,0,.26,0L72.26,12.79a.19.19,0,0,0,0-.26L62.19,2.45A.18.18,0,0,0,62.06,2.4Z" transform="translate(-0.26)"/><path class="cls-1" d="M60.79,26s0,0,0,0l-2.24,1.81a1.39,1.39,0,0,1-2-.21l-9-11.07a1.35,1.35,0,0,1-.28-1.12s0,0,0,0Z" transform="translate(-0.26)"/></g></svg>