<svg id="Слой_2" data-name="Слой 2" xmlns="http://www.w3.org/2000/svg" viewBox="0 0 74.8 75"><defs><style>.cls-1{fill:#f7f7f7;}.cls-2{fill:#115071;}.cls-3{fill:#fc9500;}.cls-4{fill:#fdfdd9;}</style></defs><g id="Веб_дизайн" data-name="Веб дизайн"><path class="cls-1" d="M73.81,5.45v49.2A4.37,4.37,0,0,1,69.43,59H5.56a4.36,4.36,0,0,1-4.37-4.37V5.45A4.37,4.37,0,0,1,5.56,1.09H69.43A4.37,4.37,0,0,1,73.81,5.45Z" transform="translate(-0.1)"/><path class="cls-2" d="M69.43,60.12H5.56A5.48,5.48,0,0,1,.1,54.65V5.45A5.46,5.46,0,0,1,5.56,0H69.43A5.47,5.47,0,0,1,74.9,5.45v49.2A5.48,5.48,0,0,1,69.43,60.12ZM5.56,2.19A3.26,3.26,0,0,0,2.29,5.45v49.2a3.27,3.27,0,0,0,3.27,3.28H69.43a3.28,3.28,0,0,0,3.28-3.28V5.45a3.27,3.27,0,0,0-3.28-3.26Z" transform="translate(-0.1)"/><polygon class="cls-1" points="46.71 73.14 37.4 73.16 28.08 73.18 29.32 59.02 45.44 59.02 45.48 59.08 45.49 59.1 46.71 73.14"/><path class="cls-2" d="M27,74.27l1.43-16.34H46.17l.49.84L48,74.22Zm3.43-14.15-1,12,16.24,0-1-11.92Z" transform="translate(-0.1)"/><path class="cls-1" d="M73.81,5.45V12H1.19V5.45A4.37,4.37,0,0,1,5.56,1.09H69.43A4.37,4.37,0,0,1,73.81,5.45Z" transform="translate(-0.1)"/><path class="cls-2" d="M74.9,13.09H.1V5.45A5.46,5.46,0,0,1,5.56,0H69.43A5.47,5.47,0,0,1,74.9,5.45ZM2.29,10.9H72.71V5.45a3.27,3.27,0,0,0-3.28-3.26H5.56A3.26,3.26,0,0,0,2.29,5.45Z" transform="translate(-0.1)"/><path class="cls-1" d="M73.81,46.71v6.42A5.9,5.9,0,0,1,67.91,59H7.08a5.89,5.89,0,0,1-5.89-5.88V46.71a1.53,1.53,0,0,1,1.53-1.53H72.28A1.53,1.53,0,0,1,73.81,46.71Z" transform="translate(-0.1)"/><path class="cls-2" d="M67.91,60.12H7.08a7,7,0,0,1-7-7V46.71a2.62,2.62,0,0,1,2.62-2.62H72.28a2.62,2.62,0,0,1,2.62,2.62v6.41A7,7,0,0,1,67.91,60.12ZM2.72,46.28a.43.43,0,0,0-.43.43v6.43a4.8,4.8,0,0,0,4.79,4.79H67.91a4.81,4.81,0,0,0,4.8-4.81V46.71a.43.43,0,0,0-.43-.43Z" transform="translate(-0.1)"/><path class="cls-2" d="M32.6,42.26H29.32a1.1,1.1,0,0,1,0-2.19h1.1V39a1.09,1.09,0,0,1,2.18,0Z" transform="translate(-0.1)"/><path class="cls-2" d="M24.93,42.26H21.41a1.1,1.1,0,0,1,0-2.19h3.52a1.1,1.1,0,0,1,0,2.19Zm-7.91,0H13.5a1.1,1.1,0,0,1,0-2.19H17a1.1,1.1,0,0,1,0,2.19Z" transform="translate(-0.1)"/><path class="cls-2" d="M9.1,42.26H5.82V39A1.1,1.1,0,0,1,8,39v1.09H9.1a1.1,1.1,0,1,1,0,2.19Z" transform="translate(-0.1)"/><path class="cls-2" d="M6.92,35.68a1.09,1.09,0,0,1-1.1-1.09V31.07a1.1,1.1,0,0,1,2.19,0v3.52A1.09,1.09,0,0,1,6.92,35.68Zm0-7.91a1.1,1.1,0,0,1-1.1-1.1V23.16a1.1,1.1,0,1,1,2.19,0v3.51A1.09,1.09,0,0,1,6.92,27.77Z" transform="translate(-0.1)"/><path class="cls-2" d="M6.92,19.85a1.09,1.09,0,0,1-1.1-1.09V15.48H9.1a1.1,1.1,0,1,1,0,2.19H8v1.09A1.09,1.09,0,0,1,6.92,19.85Z" transform="translate(-0.1)"/><path class="cls-2" d="M24.93,17.67H21.41a1.1,1.1,0,0,1,0-2.19h3.52a1.1,1.1,0,0,1,0,2.19Zm-7.91,0H13.5a1.1,1.1,0,0,1,0-2.19H17a1.1,1.1,0,0,1,0,2.19Z" transform="translate(-0.1)"/><path class="cls-2" d="M31.51,19.85a1.09,1.09,0,0,1-1.09-1.09V17.67h-1.1a1.1,1.1,0,0,1,0-2.19H32.6v3.28A1.09,1.09,0,0,1,31.51,19.85Z" transform="translate(-0.1)"/><path class="cls-2" d="M31.51,35.68a1.09,1.09,0,0,1-1.09-1.09V31.07a1.09,1.09,0,1,1,2.18,0v3.52A1.09,1.09,0,0,1,31.51,35.68Zm0-7.91a1.09,1.09,0,0,1-1.09-1.1V23.16a1.09,1.09,0,1,1,2.18,0v3.51A1.09,1.09,0,0,1,31.51,27.77Z" transform="translate(-0.1)"/><rect class="cls-3" x="11.32" y="21.08" width="15.59" height="15.59" rx="1.19"/><path class="cls-2" d="M25.82,37.76H12.61a2.28,2.28,0,0,1-2.28-2.28V22.26A2.29,2.29,0,0,1,12.61,20H25.82a2.29,2.29,0,0,1,2.28,2.28V35.48A2.28,2.28,0,0,1,25.82,37.76ZM12.61,22.17a.09.09,0,0,0-.1.09V35.48a.09.09,0,0,0,.1.09H25.82a.1.1,0,0,0,.1-.09V22.26a.1.1,0,0,0-.1-.09Z" transform="translate(-0.1)"/><rect class="cls-3" x="36.36" y="16.57" width="31.87" height="8.15" rx="1.14"/><path class="cls-2" d="M67.19,25.81H37.6a2.24,2.24,0,0,1-2.24-2.23V17.72a2.24,2.24,0,0,1,2.24-2.24H67.19a2.23,2.23,0,0,1,2.23,2.24v5.86A2.23,2.23,0,0,1,67.19,25.81ZM37.6,17.67l-.05,5.91,29.64.05a.06.06,0,0,0,0-.05V17.72Z" transform="translate(-0.1)"/><path class="cls-2" d="M68.33,30h-20a1.09,1.09,0,1,1,0-2.18h20a1.09,1.09,0,1,1,0,2.18Z" transform="translate(-0.1)"/><path class="cls-2" d="M44.78,30H36.46a1.09,1.09,0,1,1,0-2.18h8.32a1.09,1.09,0,1,1,0,2.18Z" transform="translate(-0.1)"/><path class="cls-2" d="M68.33,35H50.87a1.1,1.1,0,0,1,0-2.19H68.33a1.1,1.1,0,0,1,0,2.19Z" transform="translate(-0.1)"/><g id="Кисточка"><path class="cls-3" d="M47.45,37a5.28,5.28,0,0,1,1,2.42,5,5,0,0,1-.77,3.79,5.22,5.22,0,0,1-4.5,1.55c-2.87-.38-5.34-4.21-6.68-9.86a36.68,36.68,0,0,1-.73-4.08C36.28,31,44.45,33,47.45,37Z" transform="translate(-0.1)"/><path class="cls-2" d="M43.89,45.38c-.27,0-.52,0-.74,0-3-.4-5.7-4.24-7.13-10.28a37.58,37.58,0,0,1-.74-4.13l-.1-.78.77.18c.35.09,8.79,2.14,11.94,6.38h0A6,6,0,0,1,49,39.39a5.34,5.34,0,0,1-.88,4.2A5.49,5.49,0,0,1,43.89,45.38ZM36.47,31.6c.16,1.12.37,2.2.61,3.21,1.3,5.49,3.69,9.11,6.22,9.44a4.66,4.66,0,0,0,4-1.35A4.23,4.23,0,0,0,48,39.54a4.71,4.71,0,0,0-1-2.18C44.63,34.15,38.62,32.21,36.47,31.6Z" transform="translate(-0.1)"/><ellipse class="cls-2" cx="61.2" cy="59.15" rx="4.14" ry="18.16" transform="translate(-23.97 56.59) rotate(-42.3)"/><path class="cls-4" d="M48.48,41.58c.6,0,1.89,3.08.6,4.27s-4.32-.51-4.26-1.09c0-.36,1.23-.12,2.3-1.06S48.11,41.57,48.48,41.58Z" transform="translate(-0.1)"/><path class="cls-2" d="M47.85,46.82a4.89,4.89,0,0,1-2.15-.57c-.57-.29-1.5-.87-1.42-1.55s.59-.65,1-.73a3.1,3.1,0,0,0,1.51-.68,3,3,0,0,0,.86-1.39c.14-.37.32-.87.86-.87h0c.66,0,1.11.92,1.32,1.47.48,1.22.63,2.84-.35,3.75A2.31,2.31,0,0,1,47.85,46.82ZM45.7,45a4.47,4.47,0,0,0,1.73.71,1.51,1.51,0,0,0,1.28-.24,1.63,1.63,0,0,0,.37-1.31,4.46,4.46,0,0,0-.49-1.7,4.18,4.18,0,0,1-1.1,1.67A3.94,3.94,0,0,1,45.7,45Z" transform="translate(-0.1)"/><ellipse class="cls-2" cx="61.11" cy="56.22" rx="1.5" ry="12.26" transform="translate(-21.99 58.79) rotate(-44.39)"/></g><rect class="cls-2" x="19.43" y="69.64" width="35.93" height="5.36" rx="1.52"/></g></svg>