<svg id="Слой_2" data-name="Слой 2" xmlns="http://www.w3.org/2000/svg" viewBox="0 0 75 61.84"><defs><style>.cls-1{fill:#115071;}.cls-2{fill:#f7f7f7;}.cls-3{fill:#fff;}.cls-4,.cls-5{fill:#fc9500;}.cls-4{stroke:#115071;stroke-miterlimit:10;stroke-width:2px;}</style></defs><g id="Фотоаппарат"><path class="cls-1" d="M74.63,24.07a8.43,8.43,0,0,1,.31,2.31V61.69a7.25,7.25,0,0,1-1,3.9,7,7,0,0,0,1-3.9V26.38A8,8,0,0,0,74.63,24.07Zm0,0a5.72,5.72,0,0,0-.49-1.19A6.61,6.61,0,0,1,74.63,24.07ZM73.14,66.55a5.08,5.08,0,0,0,.77-1A6,6,0,0,1,73.14,66.55ZM71,20.19a6,6,0,0,1,1.14.56A5.48,5.48,0,0,0,71,20.19Zm0,47.69a6,6,0,0,0,1.14-.55A6.65,6.65,0,0,1,71,67.88Zm-15.19-18h0c.07-.23.14-.44.21-.66Zm-.76,1.95h0c0-.1.09-.21.14-.32C55.18,51.66,55.14,51.76,55.09,51.87Zm-.3.66h0l.07-.15A.71.71,0,0,0,54.79,52.53Zm-2,3.47h0c.09-.12.17-.25.25-.38C53,55.74,52.88,55.88,52.79,56ZM27.42,8.57h0s.06,0,.08-.08Zm-6.06,7.74a2.29,2.29,0,0,0,0-.39c0,.12,0,.24,0,.39,0,1.09,0,2.19,0,3.4h0C21.36,18.5,21.37,17.4,21.36,16.31ZM14.27,44a.25.25,0,0,0,0,.09V44a2.21,2.21,0,0,1,.15-.73A2.22,2.22,0,0,0,14.27,44ZM11.49,19.67h0V18.42C11.49,18.82,11.49,19.25,11.49,19.67Z" transform="translate(0.05 -6.52)"/><path class="cls-2" d="M18.82,17.28v2.39H11.5V18.42c0-.2,0-.41,0-.61s0-.33,0-.53Z" transform="translate(0.05 -6.52)"/><path class="cls-2" d="M72.41,32.13V56H52.8c.09-.12.17-.25.25-.38.23-.38.47-.75.69-1.12s.5-.87.73-1.31h0a2.39,2.39,0,0,0,.16-.32,3.41,3.41,0,0,0,.17-.33l.07-.15c.07-.13.12-.26.18-.39l.05-.12c0-.1.09-.21.14-.32s.1-.21.13-.32l.26-.66c.08-.22.16-.44.23-.65s.14-.44.21-.66.15-.57.22-.85.13-.56.19-.84c.08-.44.16-.87.21-1.31,0-.23.06-.47.08-.7s0-.45,0-.66a3,3,0,0,0,0-.42c0-.37,0-.73,0-1.1,0-.17,0-.34,0-.52l0-.38a5.38,5.38,0,0,0-.07-.69c0-.12,0-.25,0-.37-.06-.32-.11-.65-.18-1,0-.17-.07-.34-.11-.51q-.24-1-.57-2a6.32,6.32,0,0,0-.32-.82,4.8,4.8,0,0,0-.24-.63,24.48,24.48,0,0,0-1.93-3.62q-.22-.37-.48-.75Z" transform="translate(0.05 -6.52)"/><path class="cls-3" d="M53.05,55.62c-.08.13-.16.26-.25.38h0C52.88,55.88,53,55.74,53.05,55.62Z" transform="translate(0.05 -6.52)"/><path class="cls-3" d="M54.87,52.38l-.07.15a3.41,3.41,0,0,1-.17.33c0-.11.11-.21.16-.33A.71.71,0,0,1,54.87,52.38Z" transform="translate(0.05 -6.52)"/><path class="cls-3" d="M55.24,51.55c-.05.11-.09.22-.14.32l-.05.12a.56.56,0,0,1,0-.12C55.14,51.76,55.18,51.66,55.24,51.55Z" transform="translate(0.05 -6.52)"/><path class="cls-3" d="M56.07,49.26c-.07.22-.14.43-.21.66s-.15.43-.23.65c.08-.22.16-.44.22-.65Z" transform="translate(0.05 -6.52)"/><path class="cls-1" d="M74.63,24.07a6.61,6.61,0,0,0-.49-1.19l-.23-.4a5.15,5.15,0,0,0-.77-1,5.89,5.89,0,0,0-1-.77A6,6,0,0,0,71,20.19a7.8,7.8,0,0,0-2.76-.47c-5.24,0-10.46,0-15.68,0h-.35l-.19,0a.82.82,0,0,1-.46-.27,1.26,1.26,0,0,1-.11-.17,2,2,0,0,1-.15-.47c-.23-1.06-.48-2.11-.75-3.16s-.55-2.11-.82-3.16a5.38,5.38,0,0,0-.2-.65,4,4,0,0,0-.15-.4l0-.07c0-.11-.09-.21-.13-.3A3.61,3.61,0,0,0,49,10.6c-.11-.19-.21-.38-.33-.55a3.27,3.27,0,0,0-.25-.36l-.06-.08,0-.07,0,0a6,6,0,0,0-.4-.48c-.15-.16-.29-.3-.45-.45h0a3.79,3.79,0,0,0-.37-.31,1.64,1.64,0,0,0-.26-.2,6.19,6.19,0,0,0-.59-.41l-.36-.2c-.17-.09-.35-.18-.52-.25a6.25,6.25,0,0,0-.6-.24,9.67,9.67,0,0,0-1.26-.32,8.14,8.14,0,0,0-1.33-.11c-3.14,0-6.3,0-9.45,0-.22,0-.46,0-.67,0l-.47.05-.36.06c-.32.07-.63.15-.95.25a3.3,3.3,0,0,0-.37.13h0c-.09,0-.18.07-.27.1a.14.14,0,0,1-.08,0,5.77,5.77,0,0,0-.56.27,4.49,4.49,0,0,0-.42.24L28.16,8a2.14,2.14,0,0,0-.26.19,2.54,2.54,0,0,0-.24.2l-.16.13s-.06.06-.08.08A4.78,4.78,0,0,0,27,9c-.14.16-.28.31-.41.48l-.12.17a.83.83,0,0,0-.11.15,4,4,0,0,0-.23.34c-.08.12-.14.26-.22.38s-.27.53-.39.81l-.17.43s0,0,0,.05a1.49,1.49,0,0,0-.09.3,1.71,1.71,0,0,0-.09.3c-.29,1.12-.57,2.24-.86,3.35v0c-.28,1.11-.56,2.24-.85,3.36,0,0,0,.06,0,.08a.42.42,0,0,1,0,.1v0s0,0,0,.05,0,0-.06.07a.34.34,0,0,1-.21.2,5.62,5.62,0,0,1-.71,0h-1c0-1.21,0-2.31,0-3.4,0-.15,0-.27,0-.39a1.76,1.76,0,0,0-.07-.33,1.08,1.08,0,0,0-.1-.27,1,1,0,0,0-.17-.21,1.6,1.6,0,0,0-1.18-.34c-3.08,0-6.15,0-9.23,0a1.67,1.67,0,0,0-1.2.35,1,1,0,0,0-.27.48,2.41,2.41,0,0,0-.09.71v3.41H9c-1.09,0-2.07,0-3.07,0h0l-.55,0A7.53,7.53,0,0,0,4.31,20a5,5,0,0,0-.5.18A6.32,6.32,0,0,0,2,21.32l-.33.33a6.19,6.19,0,0,0-.47.55,6.79,6.79,0,0,0-.73,1.26,5.38,5.38,0,0,0-.24.71c0,.13-.09.27-.14.41S0,24.85,0,25V63.09l0,0s0,0,0,.06a6,6,0,0,0,.19.64,1.43,1.43,0,0,0,.08.22,1.12,1.12,0,0,0,.09.22,1.57,1.57,0,0,0,.09.23c0,.07.05.13.08.21s.13.26.2.39h0s0,0,0,0a6.17,6.17,0,0,0,.42.7c.06.08.11.17.18.25a3.27,3.27,0,0,0,.3.35.05.05,0,0,0,0,0l.28.28c.13.11.26.22.41.33s.28.2.42.29a1.65,1.65,0,0,0,.37.2.42.42,0,0,0,.16.09l.18.08a.49.49,0,0,0,.19.07.26.26,0,0,0,.12,0,1.63,1.63,0,0,0,.31.11h0a2.42,2.42,0,0,0,.36.1h0l.14,0h0L5,68.2l.13,0h.13a2.52,2.52,0,0,0,.49.07,2.22,2.22,0,0,0,.37,0l.67,0q30.75,0,61.51,0A7.65,7.65,0,0,0,71,67.88a6.65,6.65,0,0,0,1.14-.55,6,6,0,0,0,1-.78,6,6,0,0,0,.77-1h0a7.25,7.25,0,0,0,1-3.9V26.38A8.43,8.43,0,0,0,74.63,24.07ZM28.25,20.3c.62-2.55,1.26-5.11,1.91-7.66.21-.87.59-1.15,1.51-1.15H43.23a1.29,1.29,0,0,1,1.51,1.16q1,3.82,1.91,7.66c.31,1.28-.19,1.89-1.52,1.89H29.76C28.43,22.2,27.92,21.57,28.25,20.3ZM11.5,18.42c0-.2,0-.41,0-.61s0-.33,0-.53h7.3v2.39H11.49C11.49,19.25,11.49,18.82,11.5,18.42ZM2.48,56V32.13H22.1a4.46,4.46,0,0,1-.31.52c-.34.47-.66,1-1,1.46-.11.18-.22.37-.32.56l-.3.57q-.22.42-.42.87c-.13.29-.25.59-.38.89s-.15.41-.22.62a6.21,6.21,0,0,0-.2.61c-.07.22-.12.43-.18.64a1.37,1.37,0,0,1-.11.31.8.8,0,0,1-.16.19.76.76,0,0,1-.58.15,11.29,11.29,0,0,0-2.47.09,4.45,4.45,0,0,0-3.67,4.89,4.52,4.52,0,0,0,4.43,4.06c.64,0,1.27,0,1.91,0a.77.77,0,0,1,.24.06s.08,0,.11.07a.35.35,0,0,1,.18.18c.17.63.37,1.24.59,1.83a8.88,8.88,0,0,0,.36.9c.26.58.53,1.15.84,1.71a16.84,16.84,0,0,0,1,1.63c.18.27.37.54.56.8,0,0,0,0,0,.06A.62.62,0,0,0,22,56ZM18.12,42v4.07a17.58,17.58,0,0,1-2.18,0,.84.84,0,0,1-.31-.08.23.23,0,0,1-.11,0,1.49,1.49,0,0,1-.25-.13,1.73,1.73,0,0,1-.28-.19,1.61,1.61,0,0,1-.39-.47,1.71,1.71,0,0,1-.13-.23l-.09-.22a1.27,1.27,0,0,1-.06-.28,1.22,1.22,0,0,1,0-.17,1.41,1.41,0,0,1,0-.2.25.25,0,0,1,0-.09,2.22,2.22,0,0,1,.16-.73,1.66,1.66,0,0,1,.17-.32,1.93,1.93,0,0,1,.22-.28,2,2,0,0,1,.57-.43,1.83,1.83,0,0,1,.7-.2C16.74,42,17.4,42,18.12,42ZM52.2,52.24c-.18.33-.37.65-.58,1s-.42.64-.65.94-.25.33-.37.48,0,0,0,0c-.18.23-.37.46-.57.67s-.41.45-.63.66-.38.38-.58.56-.27.24-.42.35a3.09,3.09,0,0,1-.39.33,14.64,14.64,0,0,1-1.58,1.13l-.3.18c-.2.12-.4.24-.61.35-.48.26-1,.5-1.48.72s-.89.35-1.35.49a14.76,14.76,0,0,1-2.4.59c-.21,0-.42.07-.64.09-.38.06-.77.09-1.16.12s-.67,0-1,0h0A16.9,16.9,0,0,1,20.91,40.65c0-.12.05-.24.08-.35a4.48,4.48,0,0,1,.11-.5c.15-.54.31-1.07.5-1.59.09-.26.19-.51.3-.76.22-.51.46-1,.71-1.47s.35-.62.54-.92.38-.59.59-.88a3,3,0,0,1,.34-.45A13,13,0,0,1,25,32.67c.18-.19.37-.4.56-.59s.49-.47.74-.69.46-.4.7-.59l0,0c.17-.16.38-.29.57-.44a15.61,15.61,0,0,1,2.55-1.52c.24-.12.49-.25.74-.35.51-.21,1-.4,1.55-.56s1.07-.3,1.62-.41a14.28,14.28,0,0,1,1.72-.26c.26,0,.51,0,.78-.06s.63,0,.95,0,.6,0,.89,0,.57,0,.84.06.57.07.85.12a7.85,7.85,0,0,1,.82.15,7.51,7.51,0,0,1,.82.19c.27.07.55.14.8.23l.7.23a8.86,8.86,0,0,1,.85.34,4.78,4.78,0,0,1,.61.28l.14,0,1,.52a16.3,16.3,0,0,1,2.16,1.45c.26.21.53.43.79.67a3.45,3.45,0,0,1,.28.26,1,1,0,0,1,.11.1l.57.57c.18.19.36.38.53.58.37.42.7.86,1,1.31.12.18.24.34.35.52s.39.64.58,1l.5.94.33.75c.13.32.25.63.36.94s.26.76.36,1.15c0,.13.06.26.1.38.13.51.23,1,.31,1.52s.12.84.15,1.28,0,.86,0,1.3,0,.88,0,1.3-.08.88-.15,1.29c-.09.56-.2,1.11-.33,1.64-.08.27-.15.54-.24.81a4.19,4.19,0,0,1-.16.46c-.07.24-.16.48-.25.71s-.07.19-.11.28a2.39,2.39,0,0,1-.13.28c-.18.41-.37.82-.59,1.22A1.14,1.14,0,0,1,52.2,52.24ZM71.63,56H52.79c.09-.12.17-.26.26-.38.23-.38.47-.75.69-1.12s.49-.87.73-1.31h0a2.39,2.39,0,0,0,.16-.32c0-.11.11-.21.16-.33a.71.71,0,0,1,.08-.15c.07-.13.12-.26.18-.39a.56.56,0,0,1,0-.12c0-.11.09-.21.15-.32s.1-.21.13-.32l.26-.66c.08-.22.16-.44.22-.65l.22-.66c.07-.29.15-.57.22-.85s.13-.56.19-.84c.08-.44.16-.87.21-1.31,0-.23.06-.47.08-.7s0-.45,0-.66a3,3,0,0,0,0-.42c0-.37,0-.73,0-1.1,0-.17,0-.34,0-.52l0-.38a5.38,5.38,0,0,0-.07-.69c0-.12,0-.25,0-.37-.06-.32-.11-.65-.18-1,0-.17-.07-.34-.11-.51q-.24-1-.57-2c-.1-.28-.2-.54-.32-.82s-.16-.42-.24-.63a24.48,24.48,0,0,0-1.93-3.62q-.22-.37-.48-.75H72.41V56Zm.69,7a16.94,16.94,0,0,0,.09-2.58A13.05,13.05,0,0,1,72.32,63Z" transform="translate(0.05 -6.52)"/><path class="cls-4" d="M54.28,42.73c0-.44-.09-.86-.15-1.28s-.18-1-.31-1.52c0-.12-.06-.25-.1-.38-.1-.39-.23-.77-.36-1.15s-.23-.62-.36-.94l-.33-.75-.5-.94c-.19-.32-.38-.64-.58-1s-.23-.34-.35-.52c-.33-.45-.66-.89-1-1.31-.17-.2-.35-.39-.53-.58l-.57-.57a1,1,0,0,0-.11-.1,3.45,3.45,0,0,0-.28-.26c-.26-.24-.53-.46-.79-.67a16.3,16.3,0,0,0-2.16-1.45l-1-.52-.14,0a4.78,4.78,0,0,0-.61-.28,8.86,8.86,0,0,0-.85-.34l-.7-.23-.8-.23c-.27-.08-.54-.13-.82-.19l-.82-.15c-.28-.05-.56-.08-.85-.12l-.84-.06c-.29,0-.6,0-.89,0s-.63,0-.95,0-.52,0-.78.06A14.28,14.28,0,0,0,34,27.5c-.55.11-1.09.25-1.62.41s-1,.35-1.55.56l-.74.35a15.61,15.61,0,0,0-2.55,1.52c-.19.15-.4.28-.57.44l0,0c-.24.19-.47.38-.7.59s-.49.46-.74.69-.38.4-.56.59a13,13,0,0,0-.88,1.06,3,3,0,0,0-.34.45c-.21.29-.4.58-.59.88s-.37.6-.54.92-.49,1-.71,1.47c-.11.25-.21.5-.3.76-.19.52-.35,1-.5,1.59a4.48,4.48,0,0,0-.11.5c0,.11,0,.23-.08.35A16.9,16.9,0,0,0,37.44,60.92h0c.34,0,.67,0,1,0s.78-.06,1.16-.12c.22,0,.43-.05.64-.09a14.76,14.76,0,0,0,2.4-.59c.46-.14.91-.31,1.35-.49s1-.46,1.48-.72c.21-.11.41-.23.61-.35l.3-.18A14.64,14.64,0,0,0,48,57.22a3.09,3.09,0,0,0,.39-.33c.15-.11.28-.23.42-.35s.39-.37.58-.56.42-.44.63-.66.39-.44.57-.67c0,0,0,0,0,0s.26-.31.37-.48.44-.61.65-.94.4-.63.58-1a1.14,1.14,0,0,0,.12-.22c.22-.4.41-.81.59-1.22a2.39,2.39,0,0,0,.13-.28c0-.09.07-.19.11-.28s.18-.47.25-.71a4.19,4.19,0,0,0,.16-.46c.09-.27.16-.54.24-.81.13-.53.24-1.08.33-1.64s.11-.85.15-1.29,0-.87,0-1.3S54.3,43.15,54.28,42.73ZM37.42,56.8A12.77,12.77,0,1,1,50.21,44.08,12.75,12.75,0,0,1,37.42,56.8Z" transform="translate(0.05 -6.52)"/><path class="cls-2" d="M22,55.77s0,0,0,.06v.11H2.48V32.13H22.1a4.46,4.46,0,0,1-.31.52c-.35.47-.67,1-1,1.46-.11.18-.22.37-.32.56a6.19,6.19,0,0,0-.3.57,8.72,8.72,0,0,0-.42.87c-.14.29-.26.59-.38.89s-.15.41-.22.62a6.21,6.21,0,0,0-.2.61c-.07.22-.12.43-.18.64a1.37,1.37,0,0,1-.11.31.8.8,0,0,1-.16.19.76.76,0,0,1-.58.15,11.29,11.29,0,0,0-2.47.09,4.45,4.45,0,0,0-3.67,4.89,4.52,4.52,0,0,0,4.43,4.06c.64,0,1.27,0,1.91,0a.77.77,0,0,1,.24.06s.08,0,.11.07a.35.35,0,0,1,.18.18c.17.63.37,1.24.59,1.83a8.88,8.88,0,0,0,.36.9,15,15,0,0,0,.84,1.71,16.84,16.84,0,0,0,1,1.63C21.64,55.24,21.83,55.51,22,55.77Z" transform="translate(0.05 -6.52)"/><path class="cls-3" d="M11.5,18.42v1.25h0C11.49,19.25,11.49,18.82,11.5,18.42Z" transform="translate(0.05 -6.52)"/><path class="cls-5" d="M18.12,42v4.07a17.58,17.58,0,0,1-2.18,0,.84.84,0,0,1-.31-.08.23.23,0,0,1-.11,0,1.49,1.49,0,0,1-.25-.13,1.73,1.73,0,0,1-.28-.19,1.61,1.61,0,0,1-.39-.47,1.71,1.71,0,0,1-.13-.23l-.09-.22a1.27,1.27,0,0,1-.06-.28,1.22,1.22,0,0,1,0-.17,1.41,1.41,0,0,1,0-.2V44a2.21,2.21,0,0,1,.15-.73,1.66,1.66,0,0,1,.17-.32,1.93,1.93,0,0,1,.22-.28,2,2,0,0,1,.57-.43,1.83,1.83,0,0,1,.7-.2C16.74,42,17.4,42,18.12,42Z" transform="translate(0.05 -6.52)"/><path class="cls-3" d="M14.43,43.23a2.21,2.21,0,0,0-.15.73v.09a.25.25,0,0,1,0-.09A2.22,2.22,0,0,1,14.43,43.23Z" transform="translate(0.05 -6.52)"/><path class="cls-5" d="M46.65,20.31q-.93-3.84-1.91-7.66a1.29,1.29,0,0,0-1.51-1.16H31.67c-.92,0-1.3.28-1.51,1.15-.65,2.55-1.29,5.11-1.91,7.66-.33,1.27.18,1.9,1.51,1.9H45.13C46.46,22.2,47,21.59,46.65,20.31ZM31,19.67c.46-1.83.89-3.57,1.36-5.32a.34.34,0,0,1,.06-.12.74.74,0,0,1,.13-.12.47.47,0,0,1,.28-.13c3.21,0,6.43,0,9.72,0h0c.47,1.9.94,3.78,1.44,5.71Z" transform="translate(0.05 -6.52)"/><path class="cls-1" d="M37.5,31.27A12.77,12.77,0,1,0,50.2,44.08,12.74,12.74,0,0,0,37.5,31.27Zm-.1,23.05A10.29,10.29,0,1,1,47.73,44.09,10.26,10.26,0,0,1,37.4,54.32Z" transform="translate(0.05 -6.52)"/><path class="cls-2" d="M43.94,19.67H31c.45-1.83.88-3.57,1.35-5.32a.65.65,0,0,1,.48-.37c3.21,0,6.43,0,9.73,0C43,15.86,43.45,17.74,43.94,19.67Z" transform="translate(0.05 -6.52)"/><path class="cls-2" d="M37.43,33.75a10.29,10.29,0,1,0,10.3,10.34A10.26,10.26,0,0,0,37.43,33.75ZM32,38.39a8.41,8.41,0,0,1,5.37-2.31c1,.22,2,.4,2.89.68a1.23,1.23,0,0,1,.89,1.59,1.25,1.25,0,0,1-1.72.72A5.34,5.34,0,0,0,33.7,40.2a1.21,1.21,0,0,1-1.82,0A1.23,1.23,0,0,1,32,38.39ZM40.57,51.2a7.77,7.77,0,0,1-8.45-1.43,1.28,1.28,0,0,1-.28-1.86c.52-.59,1.23-.57,1.94,0a5.35,5.35,0,0,0,8.65-5.83c-.3-.88,0-1.55.68-1.81a1.25,1.25,0,0,1,1.63,1c.28.9.43,1.84.57,2.41C45.13,47.36,43.61,49.81,40.57,51.2Z" transform="translate(0.05 -6.52)"/><path class="cls-1" d="M45.31,43.66c-.18,3.7-1.7,6.15-4.74,7.54a7.77,7.77,0,0,1-8.45-1.43,1.28,1.28,0,0,1-.28-1.86c.52-.59,1.23-.57,1.94,0a5.35,5.35,0,0,0,8.65-5.83c-.3-.88,0-1.55.68-1.81a1.25,1.25,0,0,1,1.63,1C45,42.15,45.17,43.09,45.31,43.66Z" transform="translate(0.05 -6.52)"/><path class="cls-1" d="M41.18,38.35a1.25,1.25,0,0,1-1.72.72A5.34,5.34,0,0,0,33.7,40.2a1.21,1.21,0,0,1-1.82,0A1.23,1.23,0,0,1,32,38.39a8.41,8.41,0,0,1,5.37-2.31c1,.22,2,.4,2.89.68A1.23,1.23,0,0,1,41.18,38.35Z" transform="translate(0.05 -6.52)"/></g></svg>