<svg id="Слой_2" data-name="Слой 2" xmlns="http://www.w3.org/2000/svg" viewBox="0 0 75 64.5"><defs><style>.cls-1{fill:#fc9500;}.cls-2{fill:#115071;}.cls-3{fill:#f7f7f7;}</style></defs><g id="лого"><path class="cls-1" d="M50.46,49.05l-13.1-6.56a.69.69,0,0,0-.64,0L23.89,49.58a.68.68,0,0,1-1-.7l2.18-14.49a.67.67,0,0,0-.21-.61l-10.69-10a.68.68,0,0,1,.35-1.18L29,20.19a.69.69,0,0,0,.51-.38L35.7,6.54a.69.69,0,0,1,1.23,0l6.75,13a.69.69,0,0,0,.52.37l14.54,1.82a.68.68,0,0,1,.41,1.16L48.86,33.3a.71.71,0,0,0-.19.62l2.77,14.39A.69.69,0,0,1,50.46,49.05Z" transform="translate(0 -5.25)"/><path class="cls-2" d="M23.55,50.57A1.59,1.59,0,0,1,22,48.74l2.17-14.38L13.54,24.42a1.58,1.58,0,0,1,.83-2.71l14.34-2.38L34.89,6.16a1.56,1.56,0,0,1,1.4-.91,1.58,1.58,0,0,1,1.44.85L44.42,19l14.43,1.8a1.59,1.59,0,0,1,1.31,1.06,1.61,1.61,0,0,1-.37,1.63L49.58,33.86l2.74,14.28a1.58,1.58,0,0,1-2.26,1.71h0l-13-6.51-12.73,7A1.61,1.61,0,0,1,23.55,50.57ZM15.09,23.41l10.38,9.72A1.58,1.58,0,0,1,26,34.52L23.83,48.59l12.45-6.87a1.58,1.58,0,0,1,1.48,0l12.72,6.36-2.69-14a1.57,1.57,0,0,1,.43-1.41l10-10.13L44.09,20.78a1.57,1.57,0,0,1-1.21-.84L36.33,7.31l-6,12.88a1.57,1.57,0,0,1-1.17.89ZM50.86,48.24Z" transform="translate(0 -5.25)"/><path class="cls-3" d="M3.23,49.87,20.05,50c0,3.41,0,6.83,0,10.24l-17.16.46q3.25-2.32,6.53-4.63Z" transform="translate(0 -5.25)"/><path class="cls-2" d="M0,61.7,8.07,56,1,49,21,49.14l0,12ZM5.42,50.79l5.43,5.42-5,3.54,13.33-.35,0-8.48Z" transform="translate(0 -5.25)"/><path class="cls-2" d="M19.48,62.93,20.05,50l-4.64,3.56Q17.45,58.26,19.48,62.93Z" transform="translate(0 -5.25)"/><path class="cls-3" d="M71.77,50.24,55,50.4q0,5.12,0,10.24l17.16.46-6.53-4.64Z" transform="translate(0 -5.25)"/><path class="cls-2" d="M75,62.07l-21-.56,0-12L74,49.32l-7,7ZM55.81,59.76l13.33.36-5-3.54,5.43-5.42-13.74.13Z" transform="translate(0 -5.25)"/><path class="cls-2" d="M55.52,63.3,55,50.4l5.29,3.19Q57.89,58.45,55.52,63.3Z" transform="translate(0 -5.25)"/><path class="cls-3" d="M59.4,66a82.07,82.07,0,0,1-22.15,2.88,82,82,0,0,1-21-2.88V54.59a154.88,154.88,0,0,0,21,1.51A155.46,155.46,0,0,0,59.4,54.59Z" transform="translate(0 -5.25)"/><path class="cls-2" d="M37.85,69.75h-.61A82.62,82.62,0,0,1,16,66.83l-.66-.18V53.56l1,.14a154.82,154.82,0,0,0,20.85,1.5,153.29,153.29,0,0,0,22-1.5l1-.14V66.65l-.66.18A82.79,82.79,0,0,1,37.85,69.75ZM17.18,65.28A81.44,81.44,0,0,0,37.25,68,80.2,80.2,0,0,0,58.5,65.28V55.62A154.27,154.27,0,0,1,37.24,57a154.81,154.81,0,0,1-20.06-1.37Z" transform="translate(0 -5.25)"/><path class="cls-2" d="M38.08,64.59A53.72,53.72,0,0,1,26,63.2a.89.89,0,0,1-.67-1.08.88.88,0,0,1,1.07-.67A53.37,53.37,0,0,0,38.3,62.79a52.3,52.3,0,0,0,11.5-1.34.89.89,0,0,1,1.08.67.91.91,0,0,1-.68,1.08,54,54,0,0,1-11.89,1.39Z" transform="translate(0 -5.25)"/></g></svg>