<svg id="Слой_2" data-name="Слой 2" xmlns="http://www.w3.org/2000/svg" viewBox="0 0 75 72.72"><defs><style>.cls-1,.cls-4{fill:#f7f7f7;}.cls-2{fill:#115071;}.cls-3{fill:#fc9500;}.cls-4{stroke:#115071;stroke-miterlimit:10;}</style></defs><g id="Дизайн_персонажа" data-name="Дизайн персонажа"><rect class="cls-1" x="4.92" y="4.72" width="48.66" height="65.56" rx="4.83" transform="translate(-5.21 3.58) rotate(-8.48)"/><path class="cls-2" d="M14.07,73.86a5.85,5.85,0,0,1-5.77-5L.07,13.59A5.84,5.84,0,0,1,5,7L43.55,1.2a5.85,5.85,0,0,1,6.64,4.92l8.24,55.29a5.83,5.83,0,0,1-4.92,6.64L14.94,73.8A6.36,6.36,0,0,1,14.07,73.86ZM44.42,3.16a3.64,3.64,0,0,0-.57,0L5.28,9a3.84,3.84,0,0,0-2.51,1.5,3.79,3.79,0,0,0-.71,2.84L10.3,68.58a3.83,3.83,0,0,0,4.34,3.22l38.58-5.75a3.82,3.82,0,0,0,3.21-4.34L48.19,6.42a3.81,3.81,0,0,0-3.77-3.26Z" transform="translate(0 -1.14)"/><circle class="cls-3" cx="30.39" cy="42.5" r="15.31"/><path class="cls-2" d="M30.39,60A16.33,16.33,0,1,1,46.71,43.64,16.34,16.34,0,0,1,30.39,60Zm0-30.63a14.31,14.31,0,1,0,14.3,14.31A14.32,14.32,0,0,0,30.39,29.33Z" transform="translate(0 -1.14)"/><circle class="cls-2" cx="24.26" cy="42.36" r="2.12"/><path class="cls-4" d="M37.29,47.23a6,6,0,0,1-11.92.54l11.86-1.38A5.73,5.73,0,0,1,37.29,47.23Z" transform="translate(0 -1.14)"/><circle class="cls-2" cx="36.46" cy="40.38" r="2.12"/><path class="cls-2" d="M38.58,23.9a1.06,1.06,0,0,1-.34-.06,1,1,0,0,1-.61-1.29l2.22-6.31a1,1,0,1,1,1.9.67l-2.22,6.31A1,1,0,0,1,38.58,23.9Z" transform="translate(0 -1.14)"/><path class="cls-2" d="M15.64,27.93a1,1,0,0,1-.78-.37l-4.28-5.15a1,1,0,0,1,1.56-1.29l4.28,5.15a1,1,0,0,1-.14,1.43A1,1,0,0,1,15.64,27.93Z" transform="translate(0 -1.14)"/><path class="cls-2" d="M26.52,23.47a1,1,0,0,1-1-.9l-.77-6.65a1,1,0,0,1,2-.23l.77,6.65a1,1,0,0,1-.89,1.12Z" transform="translate(0 -1.14)"/><g id="Rfhfylfi"><path class="cls-3" d="M67.13,13.06c1-2.65,3.73-4,5.42-3.24a2.87,2.87,0,0,1,1.1,1h0A5.92,5.92,0,0,1,74,16.33c-1.17,2.59-3.91,3.44-5.47,2.44l0,0A5,5,0,0,1,67.13,13.06Z" transform="translate(0 -1.14)"/><path class="cls-2" d="M70,19.68a3.24,3.24,0,0,1-1.75-.48,5.53,5.53,0,0,1-1.57-6.31h0a6,6,0,0,1,3.26-3.47,3.52,3.52,0,0,1,2.84-.06,3.43,3.43,0,0,1,1.31,1.16,6.45,6.45,0,0,1,.36,6,5.33,5.33,0,0,1-3.27,3A4.43,4.43,0,0,1,70,19.68Zm-2.37-6.44a4.55,4.55,0,0,0,1.12,5.08,2.58,2.58,0,0,0,2.14.22,4.31,4.31,0,0,0,2.64-2.42,5.4,5.4,0,0,0-.28-5,2.35,2.35,0,0,0-.9-.81,2.51,2.51,0,0,0-2,.07,5,5,0,0,0-2.7,2.89Z" transform="translate(0 -1.14)"/><path class="cls-3" d="M47.17,61.42,66.83,14.35l.07-.18c.15-.34.43-.54.63-.44l5.82,2.75.08.05a.7.7,0,0,1,0,.74L53.73,64.52l-2.16-1-3-1.42Z" transform="translate(0 -1.14)"/><path class="cls-2" d="M54,65.21l-7.47-3.54.19-.44L66.44,14a1.24,1.24,0,0,1,.68-.72.78.78,0,0,1,.62,0l6.05,2.91a1.18,1.18,0,0,1,.14,1.28Zm-6.17-4,5.65,2.67L73,17.08a.58.58,0,0,0,0-.19l-5.6-2.64a.35.35,0,0,0-.07.11l-.07.18Z" transform="translate(0 -1.14)"/><path class="cls-2" d="M47.17,61.42,66.83,14.35l1,.48.08.05a.75.75,0,0,1,0,.74L48.57,62.08Z" transform="translate(0 -1.14)"/><path class="cls-2" d="M51.57,63.5,71.29,16.26c.15-.34.43-.53.63-.44l1.51.71a.7.7,0,0,1,0,.74L53.73,64.52Z" transform="translate(0 -1.14)"/><path class="cls-1" d="M47.26,71.29,47,66.58l-.24-4.81c1.89-1.9,2.76-2,3.21-1.72.68.42.41,1.73,1.24,2.08s1.69-.77,2.13-.16c.18.25.09.49.43,1.86.08.32.16.58.21.74s-.09.19-.13.29-.08.19-.13.29l-2.62,2.5Z" transform="translate(0 -1.14)"/><path class="cls-2" d="M47,71.85l0-.54c-.09-1.57-.17-3.15-.26-4.72s-.17-3.2-.25-4.81v-.11l.08-.08c1.63-1.63,2.78-2.21,3.52-1.76A1.78,1.78,0,0,1,50.75,61c.12.42.22.79.55.93a1.31,1.31,0,0,0,1-.16c.4-.18.9-.39,1.25.08a1.39,1.39,0,0,1,.2.65c0,.26.11.65.27,1.3.08.31.15.57.2.73l0,.09-.34.74-2.25,2.14-.38.36-3.83,3.65Zm0-10c.08,1.57.16,3.13.25,4.69.07,1.4.15,2.79.23,4.18l3.43-3.28.39-.36L53.5,65l.2-.44c-.05-.17-.11-.4-.18-.67-.17-.67-.23-1.07-.28-1.34s-.05-.35-.11-.43-.2-.11-.64.08a1.39,1.39,0,0,1-2.23-1.1,1.4,1.4,0,0,0-.43-.83C49.55,60.09,48.81,60.08,47,61.87Z" transform="translate(0 -1.14)"/><path class="cls-2" d="M47.26,71.3c-.09-1.58-.18-3.15-.26-4.72a5.2,5.2,0,0,1,2.5.16l0,0a4.73,4.73,0,0,1,1.54.89l-3.62,3.44Z" transform="translate(0 -1.14)"/><path class="cls-2" d="M47.42,71c.45-.6.92-1.24,1.39-1.91s.84-1.22,1.23-1.81a2,2,0,0,1,.25.14l.34.22Z" transform="translate(0 -1.14)"/><path class="cls-1" d="M66.06,14h0c.32-.76.94-1.2,1.4-1L74,16.09c.45.21.57,1,.25,1.76h0c-.32.76-.94,1.21-1.4,1l-6.52-3.08C65.85,15.54,65.74,14.75,66.06,14Z" transform="translate(0 -1.14)"/><path class="cls-2" d="M73.08,19.4a1.1,1.1,0,0,1-.47-.1l-6.52-3.08c-.72-.34-.93-1.38-.5-2.42a2.3,2.3,0,0,1,1.17-1.27,1.15,1.15,0,0,1,.91,0l6.53,3.08a1.82,1.82,0,0,1,.49,2.42,2.27,2.27,0,0,1-1.17,1.27A1.36,1.36,0,0,1,73.08,19.4Zm-5.87-5.94-.09,0a1.22,1.22,0,0,0-.59.71h0c-.25.6-.11,1.06,0,1.11l6.53,3.09a.2.2,0,0,0,.11,0,1.23,1.23,0,0,0,.6-.71c.26-.61.12-1.06,0-1.11l-6.52-3.09Z" transform="translate(0 -1.14)"/></g></g></svg>