<svg id="Слой_2" data-name="Слой 2" xmlns="http://www.w3.org/2000/svg" viewBox="0 0 56.24 75"><defs><style>.cls-1{fill:#f7f7f7;}.cls-2{fill:#115071;}.cls-3{fill:#fdfdd9;}.cls-4{fill:#fc9500;}</style></defs><g id="Инфографика"><rect class="cls-1" x="1.12" y="1.12" width="54" height="72.76" rx="5.36"/><path class="cls-2" d="M59.14,75H15.86a6.49,6.49,0,0,1-6.48-6.48v-62A6.49,6.49,0,0,1,15.86,0H59.14a6.49,6.49,0,0,1,6.48,6.48v62A6.49,6.49,0,0,1,59.14,75ZM15.86,2.24a4.24,4.24,0,0,0-4.24,4.24v62a4.24,4.24,0,0,0,4.24,4.24H59.14a4.24,4.24,0,0,0,4.24-4.24v-62a4.24,4.24,0,0,0-4.24-4.24Z" transform="translate(-9.38)"/><path class="cls-3" d="M52.6,26.24A14.64,14.64,0,0,1,26,34.65l5.57-5.15a7.1,7.1,0,0,0,13.29-3.15l1.07-.11c2.22-.25,4.45-.48,6.67-.72v.11C52.59,25.83,52.6,26,52.6,26.24Z" transform="translate(-9.38)"/><path class="cls-2" d="M38,41.44A15.23,15.23,0,0,1,25.52,35l-.28-.4,6.46-6,.34.62a6.54,6.54,0,0,0,12.24-2.9l0-.49,1.55-.16L51.91,25l1.23-.13v.62c0,.29,0,.51,0,.72A15.22,15.22,0,0,1,38,41.44ZM26.73,34.72A14.07,14.07,0,0,0,52,26.24v-.1h0c-2,.22-4,.43-6.06.66l-.6.06a7.66,7.66,0,0,1-13.93,3.51Z" transform="translate(-9.38)"/><path class="cls-2" d="M37.76,34.26a8.23,8.23,0,0,1-.3-16.45h.3A8.24,8.24,0,0,1,46,26a3.24,3.24,0,0,1,0,.44A8.19,8.19,0,0,1,37.76,34.26Zm-.19-14.21a6,6,0,1,0,6.17,6.25c0-.13,0-.2,0-.27a6,6,0,0,0-6-6h-.19Z" transform="translate(-9.38)"/><path class="cls-2" d="M52.63,25.65v-.12L46,26.25l-1.07.11c0-.11,0-.21,0-.32a7.11,7.11,0,0,0-7.11-7.11h-.21c0-.36.09-.73.13-1.09q.38-3.12.74-6.23h-.13c.09-.72.18-1.43.26-2.14A16.73,16.73,0,0,1,54.8,25.41Z" transform="translate(-9.38)"/><path class="cls-2" d="M40.28,27.47H36.2a1.13,1.13,0,0,1,0-2.25h4.08a1.13,1.13,0,0,1,0,2.25Z" transform="translate(-9.38)"/><path class="cls-2" d="M55.77,10.34H51.7a1.12,1.12,0,1,1,0-2.24h4.07a1.12,1.12,0,0,1,0,2.24Z" transform="translate(-9.38)"/><path class="cls-2" d="M19.84,27H15.76a1.12,1.12,0,1,1,0-2.24h4.08a1.12,1.12,0,0,1,0,2.24Z" transform="translate(-9.38)"/><path class="cls-2" d="M55.3,41.52H51.22a1.13,1.13,0,0,1,0-2.25H55.3a1.13,1.13,0,0,1,0,2.25Z" transform="translate(-9.38)"/><path class="cls-2" d="M56.77,49.76H44.12a1.12,1.12,0,0,1,0-2.24H56.77a1.12,1.12,0,0,1,0,2.24Z" transform="translate(-9.38)"/><path class="cls-2" d="M51.47,54.12H44.12a1.12,1.12,0,0,1,0-2.24h7.35a1.12,1.12,0,1,1,0,2.24Z" transform="translate(-9.38)"/><path class="cls-2" d="M36.7,68.06H16.09a1.12,1.12,0,1,1,0-2.24H36.7a1.12,1.12,0,0,1,0,2.24Z" transform="translate(-9.38)"/><rect class="cls-4" x="14.45" y="46.08" width="5.69" height="20.86" rx="1.42"/><path class="cls-2" d="M28.1,67.5H25.26a2,2,0,0,1-2-2v-18a2,2,0,0,1,2-2H28.1a2,2,0,0,1,2,2v18A2,2,0,0,1,28.1,67.5ZM25.26,46.64a.87.87,0,0,0-.87.86v18a.87.87,0,0,0,.87.86H28.1a.87.87,0,0,0,.86-.86v-18a.87.87,0,0,0-.86-.86Z" transform="translate(-9.38)"/><rect class="cls-2" x="19.94" y="52.62" width="5.69" height="14.32" rx="1.42"/><rect class="cls-2" x="8.73" y="57.24" width="5.69" height="9.68" rx="1.42"/><path class="cls-2" d="M44.12,62.34A1.12,1.12,0,0,1,43,61.22V59.78a1.12,1.12,0,1,1,2.24,0v1.44A1.12,1.12,0,0,1,44.12,62.34Z" transform="translate(-9.38)"/><path class="cls-2" d="M47.79,62.34a1.12,1.12,0,0,1-1.12-1.12V59.78a1.13,1.13,0,0,1,2.25,0v1.44A1.13,1.13,0,0,1,47.79,62.34Z" transform="translate(-9.38)"/><path class="cls-2" d="M57,62.34a1.13,1.13,0,0,1-1.13-1.12V59.78a1.13,1.13,0,0,1,2.25,0v1.44A1.12,1.12,0,0,1,57,62.34Z" transform="translate(-9.38)"/><path class="cls-2" d="M53.93,62.34a1.12,1.12,0,0,1-1.12-1.12V59.78a1.13,1.13,0,0,1,2.25,0v1.44A1.13,1.13,0,0,1,53.93,62.34Z" transform="translate(-9.38)"/><path class="cls-2" d="M51,62.34a1.12,1.12,0,0,1-1.12-1.12V59.78a1.12,1.12,0,1,1,2.24,0v1.44A1.12,1.12,0,0,1,51,62.34Z" transform="translate(-9.38)"/><path class="cls-2" d="M44.12,68.3A1.12,1.12,0,0,1,43,67.18V65.74a1.12,1.12,0,0,1,2.24,0v1.44A1.12,1.12,0,0,1,44.12,68.3Z" transform="translate(-9.38)"/><path class="cls-2" d="M47.79,68.3a1.12,1.12,0,0,1-1.12-1.12V65.74a1.13,1.13,0,0,1,2.25,0v1.44A1.13,1.13,0,0,1,47.79,68.3Z" transform="translate(-9.38)"/><path class="cls-2" d="M53.93,68.3a1.12,1.12,0,0,1-1.12-1.12V65.74a1.13,1.13,0,0,1,2.25,0v1.44A1.13,1.13,0,0,1,53.93,68.3Z" transform="translate(-9.38)"/><path class="cls-2" d="M51,68.3a1.12,1.12,0,0,1-1.12-1.12V65.74a1.12,1.12,0,0,1,2.24,0v1.44A1.12,1.12,0,0,1,51,68.3Z" transform="translate(-9.38)"/><path class="cls-4" d="M38.42,11.61c-.25,2.08-.5,4.15-.74,6.24,0,.36-.09.73-.14,1.09a7.1,7.1,0,0,0-6.9,7.1,6.94,6.94,0,0,0,.92,3.47L26,34.66A14.64,14.64,0,0,1,38,11.6h.45Z" transform="translate(-9.38)"/><path class="cls-2" d="M25.9,35.51,25.53,35A15.2,15.2,0,0,1,38,11h.27l.76,0,0,.58L38,19.48l-.48,0A6.56,6.56,0,0,0,31.21,26a6.31,6.31,0,0,0,.84,3.19l.22.39ZM37.79,12.17A14.08,14.08,0,0,0,26.09,33.8l4.77-4.41A7.5,7.5,0,0,1,30.08,26a7.62,7.62,0,0,1,7-7.64Z" transform="translate(-9.38)"/></g></svg>