<svg id="Слой_2" data-name="Слой 2" xmlns="http://www.w3.org/2000/svg" viewBox="0 0 69.69 75"><defs><style>.cls-1{fill:none;stroke:#1d1d1b;stroke-miterlimit:10;stroke-width:4px;}.cls-2{fill:#f7f7f7;}.cls-3{fill:#115071;}.cls-4{fill:#fc9500;}.cls-5{fill:#fdfdd9;}</style></defs><g id="Иллюстрация"><path class="cls-1" d="M16.64,32.9" transform="translate(-2.65)"/><path class="cls-2" d="M68.39,24.21c-1.23-.91-4.45-2.58-6.92-1.57a16.68,16.68,0,0,1-3.13,1.26c-1.32.36-2.06.55-2.61.27-1.42-.73-.64-4.23-.53-7,.25-5.5-2.06-11.25-4.67-13.73-5.6-5.32-17.94-.6-19.64.06C15.49,9.46,4.73,26.32,3.78,43.08,3.5,48,2.71,61.66,12.06,69.21,18,74,25.15,74,28.45,74c13.82,0,23.45-8.9,28.62-13.71,4-3.73,12.23-11.57,13.9-23.23C71.36,34.33,72.38,27.18,68.39,24.21ZM49.82,31.29c-1.66,3.21-4.58,5-6.51,4s-2.14-4.39-.46-7.6,4.58-5,6.5-4S51.5,28.08,49.82,31.29Z" transform="translate(-2.65)"/><path class="cls-3" d="M28.56,75h-.11c-3.23,0-10.79,0-17-5C1.71,62.1,2.51,48.24,2.81,43c1-17.9,12.42-34.51,27.73-40.38C34.92,1,45.72-2.42,51.2,2.78c2.61,2.49,5.25,8.41,5,14.48,0,.64-.1,1.33-.16,2-.11,1.22-.35,3.76.16,4a5.59,5.59,0,0,0,1.9-.35,11.41,11.41,0,0,0,2.35-.91c.25-.12.47-.23.68-.31,2.85-1.17,6.39.59,7.86,1.69h0c4.45,3.31,3.37,10.92,3,13.79C70.18,49.47,61.46,57.57,57.74,61,52.48,65.92,42.72,75,28.56,75ZM42.89,2A35.65,35.65,0,0,0,31.24,4.46C16.85,10,5.71,26.24,4.75,43.13c-.28,4.95-1,18.09,7.92,25.32C18.35,73,25.17,73,28.45,73.05h.11c13.39,0,22.79-8.74,27.85-13.44C60,56.29,68.35,48.51,70,37c.36-2.56,1.33-9.34-2.19-12-1.31-1-4.08-2.22-6-1.45-.17.07-.35.16-.55.26a13.89,13.89,0,0,1-2.7,1c-1.45.4-2.41.66-3.31.2-1.67-.87-1.44-3.33-1.2-5.94.06-.65.12-1.31.15-1.93.24-5.29-2-10.75-4.37-13C48.1,2.53,45.56,2,42.89,2Zm1.57,34.61a3.5,3.5,0,0,1-1.59-.37A3.81,3.81,0,0,1,41,33.87a9,9,0,0,1,1-6.6c1.94-3.75,5.37-5.7,7.81-4.44a3.76,3.76,0,0,1,1.85,2.31,9,9,0,0,1-1,6.6C49.14,34.72,46.65,36.56,44.46,36.56ZM48.2,24.4c-1.31,0-3.22,1.33-4.49,3.77a7.23,7.23,0,0,0-.84,5.11,1.89,1.89,0,0,0,.88,1.17c1.25.64,3.69-.69,5.21-3.61h0a7.17,7.17,0,0,0,.83-5.11,1.86,1.86,0,0,0-.88-1.17A1.49,1.49,0,0,0,48.2,24.4Z" transform="translate(-2.65)"/><path class="cls-3" d="M37.92,8.44a7,7,0,0,1,.94.4c3,1.55,4.43,5,3.08,7.64s-4.92,3.59-8,2a6.71,6.71,0,0,1-1.51-1,5.57,5.57,0,0,1-1.56-6.61A5.66,5.66,0,0,1,37.92,8.44Z" transform="translate(-2.65)"/><path class="cls-3" d="M28.32,29.57s0,0,0,0c-.09.21-.2.42-.31.62a5.52,5.52,0,0,1-10.26-2.09,5.44,5.44,0,0,1,1.15-4h0a5.56,5.56,0,0,1,2.27-1.66,5.2,5.2,0,0,1,1.42-.36,5.51,5.51,0,0,1,6.1,4.81A5.33,5.33,0,0,1,28.32,29.57Z" transform="translate(-2.65)"/><path class="cls-3" d="M20.18,49.69a5.59,5.59,0,1,1-7.61-7.88A5.69,5.69,0,0,1,15,41a5.6,5.6,0,0,1,6.21,4.89A5.53,5.53,0,0,1,20.18,49.69Z" transform="translate(-2.65)"/><path class="cls-3" d="M30.17,65.12a4.23,4.23,0,0,1-.17.58,6.39,6.39,0,0,1-5.38,4c-3.46.4-6.56-1.76-6.91-4.81a5.06,5.06,0,0,1,.7-3.17h0a6.15,6.15,0,0,1,2-2,7.07,7.07,0,0,1,3-1c3.47-.39,6.57,1.77,6.92,4.81A4.88,4.88,0,0,1,30.17,65.12Z" transform="translate(-2.65)"/><g id="Кисточка"><path class="cls-4" d="M68.44,30a5.48,5.48,0,0,1-2.18,1.66,5.17,5.17,0,0,1-4,.16,5.43,5.43,0,0,1-2.68-4.15c-.33-3,2.92-6.42,8.28-9.18a40,40,0,0,1,3.93-1.74C71.78,17.21,71.78,26,68.44,30Z" transform="translate(-2.65)"/><path class="cls-3" d="M63.91,32.63a4.29,4.29,0,0,1-1.86-.4,5.83,5.83,0,0,1-3-4.54C58.74,24.57,61.94,21,67.63,18a40.51,40.51,0,0,1,4-1.76l.66-.25v.7c0,.38,0,9.36-3.44,13.56h0a6.06,6.06,0,0,1-2.38,1.81A6.86,6.86,0,0,1,63.91,32.63Zm7.37-15.19c-1.13.46-2.21.94-3.2,1.46-5.25,2.69-8.32,6-8,8.69a4.91,4.91,0,0,0,2.4,3.76,4.47,4.47,0,0,0,3.61-.17,5.06,5.06,0,0,0,2-1.52h0C70.78,26.39,71.21,19.65,71.28,17.44Z" transform="translate(-2.65)"/><ellipse class="cls-3" cx="49.57" cy="49.31" rx="18.85" ry="4.3" transform="translate(-21.65 62.99) rotate(-56.13)"/><path class="cls-5" d="M64.12,32.14c.14.6-2.64,2.66-4.15,1.67s-.57-4.49,0-4.57c.37,0,.43,1.21,1.65,2.06S64,31.76,64.12,32.14Z" transform="translate(-2.65)"/><path class="cls-3" d="M60.94,34.56a2.18,2.18,0,0,1-1.24-.35c-1.13-.74-1.2-2.39-.9-3.7.14-.62.48-1.67,1.14-1.75.5-.06.72.39.9.75a3.29,3.29,0,0,0,1.09,1.39,3.39,3.39,0,0,0,1.64.53c.41.05.91.1,1,.6h0c.14.62-.65,1.28-1.13,1.62A4.72,4.72,0,0,1,60.94,34.56ZM60,30a4.67,4.67,0,0,0-.36,2,1.73,1.73,0,0,0,.6,1.38,1.84,1.84,0,0,0,1.57,0,4.42,4.42,0,0,0,1.65-1,4.3,4.3,0,0,1-2.08-.7A4.21,4.21,0,0,1,60,30Z" transform="translate(-2.65)"/><ellipse class="cls-3" cx="52.5" cy="48.49" rx="12.72" ry="1.56" transform="translate(-19.02 67.58) rotate(-58.22)"/></g></g></svg>