<svg id="Слой_2" data-name="Слой 2" xmlns="http://www.w3.org/2000/svg" viewBox="0 0 49.01 75"><defs><style>.cls-1{fill:#115071;}.cls-2{fill:#f7f7f7;}.cls-3{fill:#fc9500;}</style></defs><g id="ДПИ"><path class="cls-1" d="M62,50.49v.31a24.8,24.8,0,0,1-1,6.61,24.55,24.55,0,0,1-2.63,5.91c-.35.58-.73,1.14-1.13,1.68a24.55,24.55,0,0,1-5.49,5.42l-.73.51-.11.06-.74.47a24.74,24.74,0,0,1-4.5,2.14,22.49,22.49,0,0,1-2.39.7A24.07,24.07,0,0,1,39.1,75c-.42,0-.86,0-1.29,0h-.32a24.51,24.51,0,0,1-5.38-.6c-.19,0-.38-.08-.57-.14-.46-.11-.9-.24-1.35-.37h0a24,24,0,0,1-3.63-1.48l-.16-.07c-.49-.25-1-.51-1.44-.8l-.15-.09a24.55,24.55,0,0,1-8.62-8.91c-.28-.48-.54-1-.78-1.48A24.38,24.38,0,0,1,13,50.49a24.94,24.94,0,0,1,.59-5.36,29,29,0,0,1,.7-3.84,29.57,29.57,0,0,1,1.53-4.5c4.66,2.1,10.74-.11,11.41-.36a18.57,18.57,0,0,0,9.55-8.37A21.05,21.05,0,0,0,48.7,36.8a20.51,20.51,0,0,0,10.49,0,29.51,29.51,0,0,1,2.19,8l0,.28a.17.17,0,0,0,0,.07A24.94,24.94,0,0,1,62,50.49Z" transform="translate(-12.99)"/><path class="cls-2" d="M54.05,42.62c0,11.85-7.41,21.44-16.56,21.44S21,54.47,21,42.62a27.73,27.73,0,0,1,.44-5,21.47,21.47,0,0,0,5.83-1.23,18.57,18.57,0,0,0,9.55-8.37A21.05,21.05,0,0,0,48.7,36.8a19.09,19.09,0,0,0,4.86.66A26.33,26.33,0,0,1,54.05,42.62Z" transform="translate(-12.99)"/><path class="cls-1" d="M37.49,65.15c-9.72,0-17.63-10.11-17.63-22.53a29.38,29.38,0,0,1,.46-5.16l.16-.84.85,0a20.07,20.07,0,0,0,5.51-1.16,17.56,17.56,0,0,0,9-7.87L36.68,26l1,1.51A20.11,20.11,0,0,0,49,35.75a18.81,18.81,0,0,0,4.59.63h.89l.17.87a27.71,27.71,0,0,1,.51,5.37C55.14,55,47.22,65.15,37.49,65.15ZM22.33,38.67a25.87,25.87,0,0,0-.3,3.95C22,53.84,29,63,37.49,63S53,53.84,53,42.62a26.19,26.19,0,0,0-.32-4.1,20.36,20.36,0,0,1-4.24-.67A22.13,22.13,0,0,1,36.84,30a19.3,19.3,0,0,1-9.24,7.42A22.8,22.8,0,0,1,22.33,38.67Z" transform="translate(-12.99)"/><path class="cls-3" d="M57.93,34l-1-2c-.16-.25-.3-.5-.46-.76a18,18,0,0,1-2.29-8.8,17,17,0,0,1,.09-1.75h0c0-.35.07-.68.13-1h0c0-.53.09-1.08.09-1.62a17,17,0,0,0-34,0c0,.54,0,1.09.08,1.62h0c.06.34.09.67.12,1,0,0,0,0,0,0a17,17,0,0,1,.09,1.75,17.78,17.78,0,0,1-2.3,8.8,8.42,8.42,0,0,1-.45.76c-.32.69-.69,1.46-.94,2l-.93,2a.82.82,0,0,0,.5,1.14,12.75,12.75,0,0,0,4.72.53,21.35,21.35,0,0,0,5.82-1.23,18.52,18.52,0,0,0,9.55-8.37A21.13,21.13,0,0,0,48.72,36.8a19.16,19.16,0,0,0,4.87.66A20.55,20.55,0,0,0,58.25,37a.8.8,0,0,0,.55-1.14C58.62,35.51,58.35,34.94,57.93,34Zm-20.41-6a10.78,10.78,0,1,1,8.33-3.95A10.75,10.75,0,0,1,37.52,28.06Z" transform="translate(-12.99)"/><path class="cls-1" d="M20.46,38.77a12.93,12.93,0,0,1-4.1-.61,2,2,0,0,1-1.18-1.08,1.89,1.89,0,0,1,0-1.56l1.94-4.05a6.85,6.85,0,0,0,.4-.69,16.79,16.79,0,0,0,2.18-8.28c0-.33,0-.68,0-1l-.06-.62c0-.32-.06-.63-.11-.95v-.17a14.18,14.18,0,0,1-.09-1.63,18.1,18.1,0,0,1,36.19,0c0,.53,0,1.09-.08,1.67l0,.13c0,.22-.06.44-.08.66l0,.3c0,.58-.08,1.14-.08,1.65a16.91,16.91,0,0,0,2.15,8.27l.07.12c.11.19.22.39.35.58l.07.13,1.82,3.81a1.89,1.89,0,0,1-1.31,2.67,21.42,21.42,0,0,1-4.9.47,20.33,20.33,0,0,1-5.13-.7A22.09,22.09,0,0,1,36.87,30a19.29,19.29,0,0,1-9.25,7.42,21.89,21.89,0,0,1-6.14,1.29Zm-3.15-2.59a11.83,11.83,0,0,0,4,.39,20.16,20.16,0,0,0,5.52-1.16A17.34,17.34,0,0,0,35,28.88a11.85,11.85,0,1,1,3.86.19A19.84,19.84,0,0,0,49,35.75a18.89,18.89,0,0,0,4.6.63A19.93,19.93,0,0,0,57.67,36L56,32.59c-.13-.2-.25-.4-.37-.61l-.08-.13a19.23,19.23,0,0,1-2.44-9.35c0-.58,0-1.2.1-1.85l0-.35c0-.24,0-.47.09-.7h0c.05-.53.08-1,.08-1.51a15.93,15.93,0,0,0-31.85,0c0,.47,0,1,.08,1.51h0v0h.12v1.1a16.38,16.38,0,0,1,.09,1.75,19,19,0,0,1-2.45,9.34,7.31,7.31,0,0,1-.44.75ZM37.38,27A9.73,9.73,0,0,0,45,23.42,9.53,9.53,0,0,0,47.2,17.3a9.67,9.67,0,1,0-11,9.59l.51-.93Z" transform="translate(-12.99)"/><path class="cls-2" d="M48.29,17.3A10.77,10.77,0,1,1,37.52,6.53,10.68,10.68,0,0,1,48.29,17.3Z" transform="translate(-12.99)"/><path class="cls-1" d="M37.52,29.15A11.84,11.84,0,1,1,46.7,24.8,11.84,11.84,0,0,1,37.52,29.15Zm0-21.53A9.68,9.68,0,1,0,45,23.42,9.53,9.53,0,0,0,47.2,17.3,9.69,9.69,0,0,0,37.52,7.62Z" transform="translate(-12.99)"/><path class="cls-3" d="M37.58,7.47A6,6,0,0,1,37,10.19c-1,1.9-2.73,2.6-4.27,3.51S30,16.4,28,19.13c0-.82-1-4.65,1.62-7.79a11.21,11.21,0,0,1,8-3.87" transform="translate(-12.99)"/><path class="cls-3" d="M37.52,7.47a6,6,0,0,0,.62,2.72c1,1.9,2.73,2.6,4.27,3.51s2.67,2.44,4.66,5.17c0-.82,1-4.39-1.58-7.53a11.22,11.22,0,0,0-8-3.87" transform="translate(-12.99)"/><g id="Лапа"><path class="cls-1" d="M39.06,53.53c.34-.12.56.08,1,.14a2.77,2.77,0,0,0,2-.76A2.86,2.86,0,0,0,43,50.12a2.31,2.31,0,0,0-1.17-1.47c-.46-.22-.78.08-1.21-.18-.18-.11-.3-.25-.62-.89-.62-1.22-.51-1.37-.79-1.61a2.22,2.22,0,0,0-2-.13A2,2,0,0,0,36,47c-.05.18,0,.25,0,1a5.72,5.72,0,0,1,0,1.78,2.79,2.79,0,0,1-.66,1.11c-.43.49-.61.43-.9.79a2.61,2.61,0,0,0-.41,1.81,2.39,2.39,0,0,0,.72,1.66,2.69,2.69,0,0,0,3.41-.55C38.59,54.16,38.62,53.68,39.06,53.53Z" transform="translate(-12.99)"/><ellipse class="cls-1" cx="37.68" cy="42.43" rx="0.89" ry="2.13" transform="translate(-21.64 9.66) rotate(-13.11)"/><ellipse class="cls-1" cx="41.46" cy="45.25" rx="0.89" ry="2.13" transform="translate(-22.18 10.59) rotate(-13.11)"/><ellipse class="cls-1" cx="33.29" cy="48.92" rx="0.89" ry="2.13" transform="translate(-23.23 8.83) rotate(-13.11)"/><ellipse class="cls-1" cx="34.82" cy="43.6" rx="1.03" ry="2.29" transform="translate(-21.98 9.04) rotate(-13.11)"/><path class="cls-3" d="M35.42,37.69c-.06.06.32.34.55,1s.15,1.22.34,1.25.11-.09.32-.2a1.29,1.29,0,0,1,.47-.13,3.65,3.65,0,0,0-.67-1.11C36,38,35.48,37.63,35.42,37.69Z" transform="translate(-12.99)"/><path class="cls-3" d="M33.69,38.42c.08,0,0,.47.14,1.1s.63,1.06.5,1.19-.15,0-.38,0a1.35,1.35,0,0,0-.45.19,3.83,3.83,0,0,1-.14-1.29A2.22,2.22,0,0,1,33.69,38.42Z" transform="translate(-12.99)"/><path class="cls-3" d="M32.32,44c.08,0,0,.47.14,1.09s.62,1.06.5,1.2-.15,0-.38,0a1.19,1.19,0,0,0-.45.19,3.82,3.82,0,0,1-.15-1.3A2.17,2.17,0,0,1,32.32,44Z" transform="translate(-12.99)"/><path class="cls-3" d="M39.39,40.28c-.06.06.32.34.55.95s.16,1.22.34,1.26.11-.1.32-.21a1.25,1.25,0,0,1,.47-.12A3.68,3.68,0,0,0,40.4,41C40,40.56,39.45,40.22,39.39,40.28Z" transform="translate(-12.99)"/></g><path class="cls-1" d="M45.24,17.59a2.74,2.74,0,0,1-.79,1.61,3.24,3.24,0,0,1-1.64.92,3.16,3.16,0,0,1-3.29-1.25,6.49,6.49,0,0,0,3,.19A5.86,5.86,0,0,0,45.24,17.59Z" transform="translate(-12.99)"/><path class="cls-1" d="M30,17.66a5.9,5.9,0,0,0,2.66,1.48,6.49,6.49,0,0,0,3-.2,3.14,3.14,0,0,1-3.28,1.26,3.3,3.3,0,0,1-1.65-.92A2.72,2.72,0,0,1,30,17.66Z" transform="translate(-12.99)"/><path class="cls-1" d="M34.88,22.86c.92,0,1.61.08,2.33.05s1.4-.09,2.31-.16A2.7,2.7,0,0,1,37.23,24,2.75,2.75,0,0,1,34.88,22.86Z" transform="translate(-12.99)"/></g></svg>