<svg id="Слой_2" data-name="Слой 2" xmlns="http://www.w3.org/2000/svg" viewBox="0 0 48.87 74.7"><defs><style>.cls-1{fill:#115071;}.cls-2{fill:#f7f7f7;}.cls-3{fill:#fc9500;}</style></defs><g id="ДПИ"><path class="cls-1" d="M61.94,50.41v.31A24.54,24.54,0,0,1,58.32,63.2c-.35.58-.73,1.14-1.13,1.68a24.58,24.58,0,0,1-5.47,5.4c-.24.17-.48.35-.73.51l-.11.06c-.23.17-.48.32-.73.47a24.7,24.7,0,0,1-4.5,2.13,24.14,24.14,0,0,1-2.38.71,25,25,0,0,1-4.17.64c-.42,0-.86,0-1.29,0h-.32a24.42,24.42,0,0,1-5.37-.6,5.73,5.73,0,0,1-.56-.14c-.46-.1-.9-.23-1.35-.36,0,0,0,0,0,0a24.28,24.28,0,0,1-3.62-1.47l-.16-.07c-.49-.25-1-.51-1.43-.8l-.15-.09a24.44,24.44,0,0,1-8.6-8.89c-.27-.47-.53-1-.77-1.47a24.25,24.25,0,0,1-2.39-10.53,24.75,24.75,0,0,1,.59-5.34,29.17,29.17,0,0,1,.69-3.84,31.21,31.21,0,0,1,1.53-4.48c4.65,2.09,10.72-.11,11.38-.36a18.49,18.49,0,0,0,9.52-8.34,21.07,21.07,0,0,0,11.89,8.71,20.54,20.54,0,0,0,10.47,0,31.21,31.21,0,0,1,1.53,4.48,30.3,30.3,0,0,1,.65,3.49c0,.09,0,.19,0,.27a.22.22,0,0,0,0,.08A24.75,24.75,0,0,1,61.94,50.41Z" transform="translate(-13.06 -0.15)"/><path class="cls-2" d="M54,42.57c0,11.8-7.38,21.37-16.51,21.37S21,54.37,21,42.57a27.62,27.62,0,0,1,.44-5,21.45,21.45,0,0,0,5.81-1.23,18.49,18.49,0,0,0,9.52-8.34,21.07,21.07,0,0,0,11.89,8.71,19.09,19.09,0,0,0,4.86.66A27,27,0,0,1,54,42.57Z" transform="translate(-13.06 -0.15)"/><path class="cls-2" d="M37.49,64.94c-9.64,0-17.5-10-17.5-22.37a28.24,28.24,0,0,1,.47-5.14l.14-.77.78,0a19.88,19.88,0,0,0,5.52-1.17,17.54,17.54,0,0,0,9-7.88l.8-1.46.91,1.39a20.15,20.15,0,0,0,11.32,8.29,18,18,0,0,0,4.6.63h.82l.16.8a28,28,0,0,1,.5,5.34C55,54.9,47.15,64.94,37.49,64.94ZM22.3,38.55a26.7,26.7,0,0,0-.31,4c0,11.23,7,20.37,15.5,20.37S53,53.8,53,42.57a27,27,0,0,0-.32-4.17,20.73,20.73,0,0,1-4.28-.67,22,22,0,0,1-11.56-7.86,19.21,19.21,0,0,1-9.24,7.46A22.77,22.77,0,0,1,22.3,38.55Z" transform="translate(-13.06 -0.15)"/><path class="cls-2" d="M57.87,34l-.95-2c-.16-.25-.3-.5-.45-.76a17.91,17.91,0,0,1-2.29-8.78c0-.58,0-1.17.09-1.74h0c0-.35.08-.69.13-1h0c.05-.53.09-1.07.09-1.62a17,17,0,0,0-33.92,0c0,.55,0,1.09.08,1.62h0c.06.33.09.67.12,1,0,0,0,0,0,0a16.75,16.75,0,0,1,.09,1.74,17.71,17.71,0,0,1-2.3,8.78c-.14.26-.28.51-.44.76-.33.68-.69,1.45-.94,2L16.26,36a.82.82,0,0,0,.5,1.13,12.5,12.5,0,0,0,4.71.54,21.23,21.23,0,0,0,5.8-1.23,18.53,18.53,0,0,0,9.53-8.34,21.07,21.07,0,0,0,11.89,8.71,19,19,0,0,0,4.85.66A20.46,20.46,0,0,0,58.19,37a.81.81,0,0,0,.55-1.14C58.56,35.47,58.29,34.91,57.87,34Zm-20.35-6a10.75,10.75,0,1,1,8.31-3.94A10.73,10.73,0,0,1,37.52,28.05Z" transform="translate(-13.06 -0.15)"/><path class="cls-1" d="M20.51,38.64A12.78,12.78,0,0,1,16.44,38a1.81,1.81,0,0,1-1.11-1,1.76,1.76,0,0,1,0-1.49l1.93-4a6.85,6.85,0,0,0,.4-.69,16.84,16.84,0,0,0,2.18-8.3c0-.33,0-.68,0-1l-.06-.62c0-.32-.06-.64-.11-.95l0-.16c0-.51-.08-1.09-.08-1.63a18,18,0,0,1,35.92,0,16.29,16.29,0,0,1-.09,1.67v.12c0,.22-.06.44-.09.66l0,.3c0,.58-.08,1.14-.08,1.65a17,17,0,0,0,2.16,8.29l.07.12.35.58.07.12,1.81,3.8A1.81,1.81,0,0,1,58.39,38a21.1,21.1,0,0,1-4.87.46,20.53,20.53,0,0,1-5.09-.69,21.91,21.91,0,0,1-11.56-7.86,19.24,19.24,0,0,1-9.25,7.46,21.87,21.87,0,0,1-6.1,1.28Zm-3.26-2.45a11.67,11.67,0,0,0,4.16.43,19.69,19.69,0,0,0,5.51-1.17,17.32,17.32,0,0,0,8.24-6.64A11.74,11.74,0,0,1,25.9,15.72,11.79,11.79,0,0,1,36.22,5.65a11.61,11.61,0,0,1,9.14,2.93A11.71,11.71,0,0,1,46.6,24.74,11.61,11.61,0,0,1,38.72,29,19.79,19.79,0,0,0,49,35.79a17.9,17.9,0,0,0,4.6.63,19,19,0,0,0,4.18-.37l-1.68-3.52-.37-.61-.08-.14a19.06,19.06,0,0,1-2.42-9.28c0-.57,0-1.19.09-1.83l0-.35.09-.7h0c.05-.53.08-1,.08-1.52a16,16,0,0,0-31.92,0,13.48,13.48,0,0,0,.08,1.52h0s0,.08,0,.13h.1v1a16.33,16.33,0,0,1,.09,1.74,18.84,18.84,0,0,1-2.43,9.27,8.68,8.68,0,0,1-.44.76Zm20.08-9.14A9.67,9.67,0,1,0,36.25,27l.47-.86Z" transform="translate(-13.06 -0.15)"/><path class="cls-2" d="M48.26,17.31A10.73,10.73,0,1,1,37.52,6.58,10.7,10.7,0,0,1,48.26,17.31Z" transform="translate(-13.06 -0.15)"/><path class="cls-1" d="M37.52,29.05a11.76,11.76,0,1,1,9.08-4.31A11.69,11.69,0,0,1,37.52,29.05Zm0-21.47a9.74,9.74,0,0,0-9.72,9.73,9.73,9.73,0,0,0,19.46,0A9.75,9.75,0,0,0,37.52,7.58Z" transform="translate(-13.06 -0.15)"/><path class="cls-3" d="M37.58,7.52A5.92,5.92,0,0,1,37,10.23c-1,1.89-2.72,2.59-4.25,3.5S30,16.42,28,19.14c0-.82-1-4.63,1.61-7.76a11.12,11.12,0,0,1,8-3.86" transform="translate(-13.06 -0.15)"/><path class="cls-3" d="M37.52,7.52a5.92,5.92,0,0,0,.62,2.71c1,1.89,2.72,2.59,4.25,3.5s2.67,2.43,4.66,5.15c0-.82,1-4.37-1.59-7.5a11.09,11.09,0,0,0-7.94-3.86" transform="translate(-13.06 -0.15)"/><g id="Лапа"><path class="cls-3" d="M39.06,53.44c.34-.12.55.08,1,.14a2.76,2.76,0,0,0,2-.76A2.84,2.84,0,0,0,43,50a2.3,2.3,0,0,0-1.18-1.47c-.45-.21-.77.09-1.2-.17-.18-.11-.3-.25-.62-.9-.61-1.21-.51-1.36-.79-1.6a2.15,2.15,0,0,0-1.94-.12A2,2,0,0,0,36,46.88c-.06.18,0,.25,0,1a5.75,5.75,0,0,1,0,1.78,2.81,2.81,0,0,1-.65,1.1c-.43.49-.61.42-.9.79a2.58,2.58,0,0,0-.41,1.8A2.39,2.39,0,0,0,34.87,55a2.68,2.68,0,0,0,3.4-.55C38.59,54.07,38.62,53.59,39.06,53.44Z" transform="translate(-13.06 -0.15)"/><ellipse class="cls-3" cx="37.68" cy="42.37" rx="0.89" ry="2.12" transform="translate(-21.7 9.51) rotate(-13.11)"/><ellipse class="cls-3" cx="41.45" cy="45.19" rx="0.89" ry="2.12" transform="translate(-22.24 10.43) rotate(-13.11)"/><ellipse class="cls-3" cx="33.3" cy="48.85" rx="0.89" ry="2.12" transform="translate(-23.28 8.68) rotate(-13.11)"/><ellipse class="cls-3" cx="34.82" cy="43.54" rx="1.03" ry="2.28" transform="translate(-22.03 8.89) rotate(-13.11)"/><path class="cls-3" d="M35.42,37.65c-.05.06.33.34.56,1s.15,1.22.33,1.25.11-.09.33-.2a1,1,0,0,1,.46-.12,3.56,3.56,0,0,0-.67-1.12C36,37.94,35.49,37.59,35.42,37.65Z" transform="translate(-13.06 -0.15)"/><path class="cls-3" d="M33.7,38.38c.08,0-.05.47.14,1.09s.63,1.06.5,1.19-.15,0-.38,0a1.35,1.35,0,0,0-.45.19,3.83,3.83,0,0,1-.14-1.29A2.17,2.17,0,0,1,33.7,38.38Z" transform="translate(-13.06 -0.15)"/><path class="cls-3" d="M32.33,43.9c.08,0,0,.47.14,1.09s.63,1.06.5,1.19-.14,0-.38,0a1.21,1.21,0,0,0-.44.19A3.79,3.79,0,0,1,32,45.12,2.17,2.17,0,0,1,32.33,43.9Z" transform="translate(-13.06 -0.15)"/><path class="cls-3" d="M39.38,40.23c-.05.06.33.34.56,1s.15,1.22.33,1.25.12-.09.33-.2a1.2,1.2,0,0,1,.46-.13A3.65,3.65,0,0,0,40.39,41C40,40.51,39.45,40.17,39.38,40.23Z" transform="translate(-13.06 -0.15)"/></g><path class="cls-1" d="M45.21,17.6a2.76,2.76,0,0,1-.8,1.59,3.25,3.25,0,0,1-1.63.9,3.18,3.18,0,0,1-3.26-1.21,6,6,0,0,0,3,.23A5.51,5.51,0,0,0,45.21,17.6Z" transform="translate(-13.06 -0.15)"/><path class="cls-1" d="M30,17.68a5.67,5.67,0,0,0,2.64,1.51A6.19,6.19,0,0,0,35.67,19a3.19,3.19,0,0,1-3.27,1.22,3.34,3.34,0,0,1-1.63-.91A2.73,2.73,0,0,1,30,17.68Z" transform="translate(-13.06 -0.15)"/><path class="cls-1" d="M34.89,22.86c.9.05,1.59.12,2.32.09s1.41-.11,2.31-.2A2.74,2.74,0,0,1,37.23,24,2.77,2.77,0,0,1,34.89,22.86Z" transform="translate(-13.06 -0.15)"/></g></svg>