<svg id="Хобби" xmlns="http://www.w3.org/2000/svg" viewBox="0 0 71 45.18"><defs><style>.cls-1{fill:#fc9500;}.cls-2{fill:#115071;}.cls-3{fill:#f7f7f7;}</style></defs><g id="Путешествия"><path class="cls-1" d="M44.07,27.58A12.68,12.68,0,1,1,31.4,14.91,12.68,12.68,0,0,1,44.07,27.58Z" transform="translate(-2 -14.91)"/><path class="cls-2" d="M72.33,59l-69.49.52c3-6.92,5.67-11.36,8-14.13a17.17,17.17,0,0,1,2-2,6.93,6.93,0,0,1,4.95-2.08c1.82.1,3.18,1.19,4.53,2.2A9.74,9.74,0,0,0,24.9,45a4.26,4.26,0,0,0,2,.18c3.83-.54,5.25-5.47,8.61-11.08.73-1.21,1.6-2.55,2.57-3.93A60.73,60.73,0,0,1,44,23h0c3.13-3.21,6.44-5.6,9.13-5.61,3.1,0,5.94,3.14,8.44,7.72a74.71,74.71,0,0,1,4.66,11A193.72,193.72,0,0,1,72.33,59Z" transform="translate(-2 -14.91)"/><path class="cls-2" d="M2,60.09l.34-.78c2.78-6.39,5.49-11.19,8.08-14.26a17.49,17.49,0,0,1,2-2.08,7.67,7.67,0,0,1,5.34-2.21,8.41,8.41,0,0,1,4.6,2.13l.23.17a8.71,8.71,0,0,0,2.46,1.43,3.7,3.7,0,0,0,1.75.17c2.59-.37,4-3,6-6.77.66-1.23,1.4-2.63,2.25-4,.75-1.25,1.62-2.59,2.59-4a60.19,60.19,0,0,1,5.84-7.09l.15-.16c3.73-3.83,6.94-5.77,9.53-5.78h0c3,0,6,2.69,8.91,8a73.69,73.69,0,0,1,4.7,11.07,193.38,193.38,0,0,1,6.1,23l.13.65h-.67l-69.48.52ZM17.47,41.86a6.67,6.67,0,0,0-4.31,1.94,17,17,0,0,0-1.9,2C8.85,48.62,6.31,53.07,3.69,59l68-.5a192.63,192.63,0,0,0-5.93-22.18A73.05,73.05,0,0,0,61.1,25.38C58.42,20.45,55.75,18,53.16,18h0c-2.21,0-5.18,1.84-8.58,5.29h0l-.16.17a58.87,58.87,0,0,0-5.88,7.1c-1,1.36-1.81,2.67-2.55,3.89-.83,1.4-1.53,2.73-2.21,4-2,3.85-3.65,6.9-6.79,7.34a4.9,4.9,0,0,1-2.26-.21A10,10,0,0,1,22,44l-.23-.17a7.49,7.49,0,0,0-4-1.92Z" transform="translate(-2 -14.91)"/><path class="cls-3" d="M61.59,25.12c-1.34.11-5-4.69-6.41-3.85-.28.17-.2.39-1,1.91-.68,1.33-1,2-1.3,2-.77,0-.15-4.19-1.71-5-2-1-6.27,4.49-7.13,3.84-.15-.11-.2-.41,0-1,0,0,0,0,0,0,3.13-3.21,6.44-5.6,9.13-5.61C56.25,17.39,59.09,20.54,61.59,25.12Z" transform="translate(-2 -14.91)"/><path class="cls-3" d="M22.28,43.51c-.36.36-1.34.18-1.82,0-1-.31-1.27-.93-1.73-.79-.64.18-.48,1.44-1.22,1.68a1.38,1.38,0,0,1-1.14-.32c-.89-.59-.7-1.43-1.27-1.66-.78-.31-1.81.89-2.3.93a6.93,6.93,0,0,1,4.95-2.08C19.57,41.41,20.93,42.5,22.28,43.51Z" transform="translate(-2 -14.91)"/></g></svg>