<svg id="Хобби" xmlns="http://www.w3.org/2000/svg" viewBox="0 0 67.31 71"><defs><style>.cls-1{fill:#115071;}.cls-2{fill:#fff;}.cls-3{fill:#f7f7f7;}.cls-4{fill:#fc9500;}</style></defs><g id="Собака"><path class="cls-1" d="M36.91,22.76c-1.42-1.17-3.8.73-9.37,2.19-5.8,1.52-8.68.89-8.74,1.48-.12,1.34,14.88,6.08,18.26,1.36C38.15,26.27,38.05,23.7,36.91,22.76Z" transform="translate(-3.84 -2)"/><path class="cls-1" d="M31.12,30.35a30.55,30.55,0,0,1-9.87-1.9c-3-1.12-3-1.78-2.94-2.07.06-.67.75-.71,2-.8a34.39,34.39,0,0,0,7.1-1.12,52,52,0,0,0,5-1.62c2.31-.86,3.71-1.38,4.82-.47h0c1.35,1.11,1.47,4,.23,5.72S33.86,30.35,31.12,30.35ZM19.66,26.64a28,28,0,0,0,10.92,2.69c2.13.06,4.9-.2,6.07-1.83,1-1.4.82-3.64-.06-4.35-.63-.53-1.69-.17-3.84.63a50.3,50.3,0,0,1-5.08,1.65,35.41,35.41,0,0,1-7.28,1.15Z" transform="translate(-3.84 -2)"/><path class="cls-1" d="M63.39,20a170.87,170.87,0,0,0-9.94,24.64c-.26.89-.52,1.84-.76,2.85a79.91,79.91,0,0,0-2.19,24q-4.87.44-10.1.71c-6.3.3-13,.39-20,.16-5.45-.17-10.67-.52-15.64-1Q18.33,53,31.89,34.59c-10,4-12.42,4.27-12.72,3.7-.52-1,5.57-4,12.37-12.11,4.21-5,3.25-5.48,6-7.95,5.59-5,8.65-2.31,18.72-7.65C60,8.61,61.86,5.36,67.71,3c1.19-.46,2.07-.73,2.58-.31C72,4.09,67.58,11.43,63.39,20Z" transform="translate(-3.84 -2)"/><path class="cls-1" d="M28.37,73c-2.66,0-5.33,0-8-.13-5.15-.16-10.42-.49-15.67-1l-.88-.09L5.46,69.6q12.48-16.95,25-33.89C19.51,40,19,39.12,18.72,38.52c-.41-.78.47-1.49,2.6-3.22a67.18,67.18,0,0,0,9.84-9.45,32.08,32.08,0,0,0,3.46-4.8,11.25,11.25,0,0,1,2.61-3.19c3-2.7,5.35-3.23,8.3-3.9A38.25,38.25,0,0,0,56,10.14a23,23,0,0,0,3.87-2.79,26.24,26.24,0,0,1,7.62-4.79c1.25-.49,2.34-.85,3.08-.23,1.56,1.28-.34,5.21-4.12,12.62-.85,1.67-1.76,3.44-2.65,5.27h0a172.6,172.6,0,0,0-9.91,24.56c-.25.87-.51,1.82-.76,2.83A80.31,80.31,0,0,0,51,71.48L51,72l-.48,0c-3.34.3-6.74.53-10.11.7C36.44,72.9,32.4,73,28.37,73ZM5.7,71c4.93.46,9.88.76,14.72.91,6.64.22,13.35.16,20-.17,3.19-.16,6.42-.38,9.59-.65A81.11,81.11,0,0,1,52.2,47.37c.25-1,.51-2,.77-2.87a173.6,173.6,0,0,1,10-24.72c.9-1.83,1.8-3.61,2.66-5.28C68.24,9.3,71,3.93,70,3.1c-.31-.26-1.18,0-2.07.39a25,25,0,0,0-7.35,4.63,22.65,22.65,0,0,1-4,2.9,38.75,38.75,0,0,1-10.76,3.92c-2.91.66-5,1.14-7.86,3.67a10.59,10.59,0,0,0-2.41,2.95,34.8,34.8,0,0,1-3.56,4.94,69.56,69.56,0,0,1-10,9.58,17.65,17.65,0,0,0-2.25,2c.46,0,2.66-.18,12-3.94l1.64-.66-1.05,1.42q-13,17.64-26,35.31Z" transform="translate(-3.84 -2)"/><path class="cls-2" d="M49,26a.25.25,0,0,1-.24-.17.25.25,0,0,1,.16-.32,2.79,2.79,0,0,0,1.56-1.3,2.85,2.85,0,0,0,0-2.51.26.26,0,0,1,.12-.34.25.25,0,0,1,.33.11,3.39,3.39,0,0,1,0,3A3.26,3.26,0,0,1,49,26Z" transform="translate(-3.84 -2)"/><path class="cls-3" d="M46.06,20.76a2.89,2.89,0,0,0-1,.65,2.66,2.66,0,0,0-.65,1.07,3,3,0,0,0,.48,2.59,3.23,3.23,0,0,1-1-2.69,3.28,3.28,0,0,1,.56-1.45,3.75,3.75,0,0,1,1.19-1.08Z" transform="translate(-3.84 -2)"/><path class="cls-3" d="M57.23,25a5.28,5.28,0,0,1-.59,0,.5.5,0,0,1-.46-.54.49.49,0,0,1,.54-.46,5.83,5.83,0,0,0,2.87-.47A6,6,0,0,0,62.2,21.2a.49.49,0,0,1,.68-.17.51.51,0,0,1,.17.69A6.76,6.76,0,0,1,57.23,25Z" transform="translate(-3.84 -2)"/><path class="cls-3" d="M67.84,2.9c-1.37,1-2.06,1.5-2.07,2S66.46,6,67,6.25a2.63,2.63,0,0,0,3-.91c.62-.81.87-2.17.26-2.7a1.89,1.89,0,0,0-1.68-.11A2.43,2.43,0,0,0,67.84,2.9Z" transform="translate(-3.84 -2)"/><path class="cls-3" d="M68.47,2.88c-.75.54-1.12.82-1.12,1.07s.37.63.64.75a1.44,1.44,0,0,0,1.61-.49c.33-.44.47-1.18.14-1.47a1,1,0,0,0-.91-.06A1,1,0,0,0,68.47,2.88Z" transform="translate(-3.84 -2)"/><path class="cls-3" d="M52.69,47.49a79.91,79.91,0,0,0-2.19,24c-3.25.29-6.61.53-10.1.7a28.19,28.19,0,0,1,2.49-9c2.11-4.44,5.31-8,5-8.31-.16-.13-.92.34-3.5,2.84a16.5,16.5,0,0,1,8.35-10.21Z" transform="translate(-3.84 -2)"/><path class="cls-1" d="M39.84,72.73l.07-.58A28.39,28.39,0,0,1,42.44,63a46,46,0,0,1,3.81-6.31l.1-.14c-.43.38-1,.89-1.66,1.55l-1.34,1.3.51-1.79a17,17,0,0,1,8.6-10.51l1-.51-.28,1.08A80.22,80.22,0,0,0,51,71.48L51,72l-.48,0c-3.34.3-6.74.53-10.11.7Zm7.95-18.41a.57.57,0,0,1,.37.16c.5.43.13,1-1.09,2.73a44.48,44.48,0,0,0-3.72,6.17A27.19,27.19,0,0,0,41,71.67c3-.15,6-.37,9-.62a81.52,81.52,0,0,1,2-22.55,15.83,15.83,0,0,0-3.37,2.72,16,16,0,0,0-3.05,4.69C46.87,54.67,47.45,54.32,47.79,54.32Z" transform="translate(-3.84 -2)"/><path class="cls-4" d="M48.07,48.37a33.12,33.12,0,0,1-9.65-1.43,32.82,32.82,0,0,1-11.55-6.3,1.5,1.5,0,0,1,1.94-2.3A29.71,29.71,0,0,0,39.3,44.07a30.13,30.13,0,0,0,13.35,1,1.5,1.5,0,1,1,.46,3A32.61,32.61,0,0,1,48.07,48.37Z" transform="translate(-3.84 -2)"/><path class="cls-4" d="M53.88,52.85c0,1.84-.44,3.34-1,3.34s-1-1.5-1-3.34.45-3.34,1-3.34S53.88,51,53.88,52.85Z" transform="translate(-3.84 -2)"/><path class="cls-4" d="M52.88,50.76c-.51,0-.75-.78-.75-1.5s.24-1.5.75-1.5.75.77.75,1.5S53.4,50.76,52.88,50.76Zm0-2.51a1.7,1.7,0,0,0-.24,1c0,.62.19,1,.27,1a1.74,1.74,0,0,0,.23-1A1.5,1.5,0,0,0,52.87,48.25Z" transform="translate(-3.84 -2)"/><path class="cls-1" d="M53,50.07a.38.38,0,0,0-.13.29.44.44,0,0,0,.18.33.35.35,0,0,1-.39-.24A.33.33,0,0,1,53,50.07Z" transform="translate(-3.84 -2)"/></g></svg>