<svg id="Хобби" xmlns="http://www.w3.org/2000/svg" viewBox="0 0 40.82 69.76"><defs><style>.cls-1{fill:#115071;}.cls-2{fill:#f7f7f7;}.cls-3{fill:#fc9500;}</style></defs><g id="Книги"><path class="cls-1" d="M24.55,64.66a3.94,3.94,0,0,1-3.7,2.8,3.88,3.88,0,0,1-3.7-2.8,13.94,13.94,0,0,1-.06-1.94c0-.64,0-1.16,0-1.52A4.72,4.72,0,0,1,21,59.37,4.37,4.37,0,0,1,24.55,64.66Z" transform="translate(-17.09 -2.62)"/><path class="cls-2" d="M56.54,7.85v57a2.08,2.08,0,0,1-2,2.15H21.29a2.08,2.08,0,0,1-2-2.15v-57a2.06,2.06,0,0,1,2-2.15H54.57A2.07,2.07,0,0,1,56.54,7.85Z" transform="translate(-17.09 -2.62)"/><path class="cls-1" d="M54.57,67.54H21.29a2.57,2.57,0,0,1-2.47-2.65v-57A2.57,2.57,0,0,1,21.29,5.2H54.57A2.57,2.57,0,0,1,57,7.85v57A2.57,2.57,0,0,1,54.57,67.54ZM21.29,6.2a1.57,1.57,0,0,0-1.47,1.65v57a1.57,1.57,0,0,0,1.47,1.65H54.57A1.59,1.59,0,0,0,56,64.89v-57A1.57,1.57,0,0,0,54.57,6.2Z" transform="translate(-17.09 -2.62)"/><path class="cls-1" d="M57.41,5.25V61.89A2.13,2.13,0,0,1,55.31,64H29.56V3.12H55.31A2.11,2.11,0,0,1,57.41,5.25Z" transform="translate(-17.09 -2.62)"/><path class="cls-1" d="M55.31,64.52H29.06V2.62H55.31a2.62,2.62,0,0,1,2.6,2.63V61.89A2.62,2.62,0,0,1,55.31,64.52Zm-25.25-1H55.31a1.62,1.62,0,0,0,1.6-1.63V5.25a1.61,1.61,0,0,0-1.6-1.63H30.06Z" transform="translate(-17.09 -2.62)"/><path class="cls-3" d="M29.56,3.12V64H19.74a2.13,2.13,0,0,1-2.11-2.13V5.25a2.11,2.11,0,0,1,2.11-2.13Z" transform="translate(-17.09 -2.62)"/><path class="cls-1" d="M30.06,64.52H19.74a2.62,2.62,0,0,1-2.61-2.63V5.25a2.62,2.62,0,0,1,2.61-2.63H30.06ZM19.74,3.62a1.61,1.61,0,0,0-1.61,1.63V61.89a1.62,1.62,0,0,0,1.61,1.63h9.32V3.62Z" transform="translate(-17.09 -2.62)"/><path class="cls-1" d="M22.32,64h6.89v8.36l-3.34-2.92-3.55,2.92Z" transform="translate(-17.09 -2.62)"/><path class="cls-2" d="M53.16,16.3H44.39a.5.5,0,0,1-.5-.5.5.5,0,0,1,.5-.5h8.77a.5.5,0,0,1,.5.5A.5.5,0,0,1,53.16,16.3Zm-13.77,0h-5a.5.5,0,0,1-.5-.5.5.5,0,0,1,.5-.5h5a.5.5,0,0,1,.5.5A.51.51,0,0,1,39.39,16.3Z" transform="translate(-17.09 -2.62)"/><path class="cls-2" d="M53.16,22.59H36.41a.5.5,0,0,1,0-1H53.16a.5.5,0,0,1,0,1Z" transform="translate(-17.09 -2.62)"/></g></svg>