<svg id="Хобби" xmlns="http://www.w3.org/2000/svg" viewBox="0 0 49.83 71"><defs><style>.cls-1{fill:#115071;}.cls-2{fill:#f7f7f7;}.cls-3{fill:#fc9500;}</style></defs><g id="Йога"><path class="cls-1" d="M39.12,10.06a4.56,4.56,0,0,0,2.16-3.24c.1-2.41-2.8-4.62-5.49-4.29s-4.88,3.16-4.26,5.33a3.89,3.89,0,0,0,2,2.2,10.62,10.62,0,0,0-2.22,1.85,12.42,12.42,0,0,0-3,8.51,2.55,2.55,0,0,0-.58.75s-.73,1.36,1,4.82a1,1,0,0,0,.42.45,1,1,0,0,0,.76,0c.12.21.31.52.53.91.36.62.52.91.61,1.05a11,11,0,0,0,1.62,2.05,8.51,8.51,0,0,0,2.17,1.49,3.75,3.75,0,0,1-.67,2.47,4.67,4.67,0,0,1-2.57,1.46,18.2,18.2,0,0,1-2.55.48c-1.41.35-2.28,1.18-4,2.82a31.53,31.53,0,0,0-3.53,4.15c-.48.66-1.35,2.33-3.1,5.65A3.51,3.51,0,0,0,18,51.27a3,3,0,0,0,.49,1.07c.87,1.14,3.32.88,9.67.34,2.25-.2,4.41-1.09,6.67-1.15a2.21,2.21,0,0,0,1.6-.58,1.56,1.56,0,0,0,.32-.58,13,13,0,0,0,.24-4.2c-.31-2.82,0-4.3-.21-4.34S36,44,35.73,45.07a39.51,39.51,0,0,0-.82,4.64,40.55,40.55,0,0,0-11.33-.38,21.82,21.82,0,0,0,3.59-3.79,22.28,22.28,0,0,0,1.87-3,8.77,8.77,0,0,0,.26,3.24c.45,1.61,1.06,1.91,1.32,3.42a30.88,30.88,0,0,1-.15,3.32,31.56,31.56,0,0,1-.32,3.42c-.18,1.13-.2.75-.39,1.91-.12.73-.14,1-.39,1.32a2,2,0,0,1-1.35.58c-.95.09-1.14-.34-2.45-.57a2.91,2.91,0,0,0-2.46.29,1.6,1.6,0,0,0-.41.63c-.33,0-.84.08-1.46.12-2.93.21-3.28.09-4.29.35a5.31,5.31,0,0,0-2.87,1.5,3.27,3.27,0,0,0-1,2.26,4.61,4.61,0,0,0,1.05,2.17,16.05,16.05,0,0,0,1.52,2c2.23,2.32,7.39,2.92,8.21,3,1,.11,1.21.08,8.56-.06,5.1-.09,5.48-.09,6.22,0a65.69,65.69,0,0,1,7.1.87,12.85,12.85,0,0,0,4.42.09A4.16,4.16,0,0,0,52,71.56a3.82,3.82,0,0,0,.87-1,13,13,0,0,0,4.56-.9A7.38,7.38,0,0,0,61.18,67a3,3,0,0,0,.73-1.76c-.07-2.05-3.59-3.62-6-4.09a18.21,18.21,0,0,0-5-.14,22.65,22.65,0,0,1-2.49.2c-2.44,0-3.14-.42-3.36-.58a3.58,3.58,0,0,1-1.17-1.79A15.92,15.92,0,0,1,43,52.6a6,6,0,0,1,.25-2.43,15.58,15.58,0,0,1,1.11-2.24,6.17,6.17,0,0,0,.32-3.6,8.5,8.5,0,0,0,1,2.3,11.33,11.33,0,0,0,.72,1,16.18,16.18,0,0,0,2.42,2.46c-1.33-.22-2.78-.41-4.35-.52a46.84,46.84,0,0,0-5.64-.06,24.91,24.91,0,0,0-.7-4.45c-.27-1.06-.9-3.27-1.2-3.22s0,4,0,4.37a40,40,0,0,0,.7,4.52c.12.08.3.21.53.35,1.32.83,3.32,1.77,7.65,2.28,0,0,4.87.87,8.15.18a.91.91,0,0,0,.41-.21,1,1,0,0,0,.26-.78c0-1.52-1.84-4-1.84-4-.13-.19-.89-1.62-2.39-4.48-2.75-5.22-2.71-6.26-4.18-6.95a21.65,21.65,0,0,0-3.42-1.19,4,4,0,0,1-2-.89,4.27,4.27,0,0,1-.91-1.45,7.44,7.44,0,0,1-.58-2A8.06,8.06,0,0,0,42,29.77a8.17,8.17,0,0,0,2.19-4.42.93.93,0,0,0,.58.14c1-.11,1.46-2,1.56-3a3.09,3.09,0,0,0-.58-2.27,10.8,10.8,0,0,0-2.24-6.84A10.66,10.66,0,0,0,39.12,10.06Z" transform="translate(-12.59 -2)"/><path class="cls-1" d="M48.36,73a15.11,15.11,0,0,1-2.71-.26,63.68,63.68,0,0,0-7-.86c-.71-.06-1-.07-6.17,0L29.26,72a45,45,0,0,1-5.44,0c-1.44-.16-6.29-.85-8.52-3.16a17.11,17.11,0,0,1-1.57-2,4.89,4.89,0,0,1-1.14-2.43,3.77,3.77,0,0,1,1.12-2.61,5.89,5.89,0,0,1,3.11-1.66,8.14,8.14,0,0,1,2-.22c.55,0,1.29-.06,2.41-.14l1.15-.09a2.15,2.15,0,0,1,.41-.53,3.3,3.3,0,0,1,2.88-.41,6.58,6.58,0,0,1,1.33.38,1.85,1.85,0,0,0,1,.18,1.53,1.53,0,0,0,1-.4c.12-.15.15-.29.23-.81l.05-.27a7.69,7.69,0,0,1,.21-1,8.18,8.18,0,0,0,.18-.9c.12-.78.19-1.46.29-2.93a16.57,16.57,0,0,1-1.72.25l-.72.07c-6.1.52-8.38.72-9.38-.6a3.35,3.35,0,0,1-.59-1.27,3.9,3.9,0,0,1,.51-2.65c1.77-3.37,2.64-5,3.14-5.71a33,33,0,0,1,3.58-4.22c1.64-1.59,2.63-2.56,4.2-2.94a7.31,7.31,0,0,1,1-.16,7.11,7.11,0,0,0,1.52-.31,4.24,4.24,0,0,0,2.33-1.3,3.1,3.1,0,0,0,.57-1.85,8.61,8.61,0,0,1-2-1.44,10.66,10.66,0,0,1-1.7-2.14l-.25-.42L29.71,27a1.27,1.27,0,0,1-.73-.1,1.45,1.45,0,0,1-.66-.68c-1.77-3.58-1.06-5.11-1-5.28a3.61,3.61,0,0,1,.53-.72A12.84,12.84,0,0,1,31,11.57a12.42,12.42,0,0,1,1.66-1.49A4,4,0,0,1,31,8a4.2,4.2,0,0,1,.7-3.4,5.74,5.74,0,0,1,4-2.55,5.81,5.81,0,0,1,4.53,1.53,4.21,4.21,0,0,1,1.52,3.26A4.46,4.46,0,0,1,40.09,10a11.18,11.18,0,0,1,3.81,3.12,11.31,11.31,0,0,1,2.34,7,3.45,3.45,0,0,1,.47,1,3.7,3.7,0,0,1,.1,1.47c0,.13-.35,3.25-2,3.44a1.13,1.13,0,0,1-.26,0,8.53,8.53,0,0,1-2.22,4.13,8.63,8.63,0,0,1-2.42,1.71,6.41,6.41,0,0,0,.48,1.46,3.83,3.83,0,0,0,.79,1.29,3.2,3.2,0,0,0,1.62.73l.2,0a21.85,21.85,0,0,1,3.51,1.22c1.17.54,1.53,1.3,2.5,3.34.44.91,1,2.17,1.91,3.82,1.29,2.46,2.22,4.24,2.36,4.43s1.93,2.7,1.93,4.34a1.57,1.57,0,0,1-.41,1.15,1.47,1.47,0,0,1-.66.33c-3.33.7-8.13-.14-8.34-.18-.85-.1-1.61-.22-2.3-.35a15.3,15.3,0,0,0,.84,5.25,3,3,0,0,0,1,1.56,5.78,5.78,0,0,0,3,.48,18.41,18.41,0,0,0,2.06-.15l.38-.05A18.64,18.64,0,0,1,56,60.7c2.44.47,6.34,2.12,6.42,4.56a3.42,3.42,0,0,1-.81,2.06,8,8,0,0,1-4,2.82,13.2,13.2,0,0,1-4.47.92,4.18,4.18,0,0,1-.84.89,4.77,4.77,0,0,1-2,.88A9.69,9.69,0,0,1,48.36,73Zm-11-2.16c.7,0,1,0,1.35,0a63.32,63.32,0,0,1,7.17.88,12.32,12.32,0,0,0,4.21.09,3.65,3.65,0,0,0,1.57-.69,3.27,3.27,0,0,0,.76-.85l.14-.23h.28a12.64,12.64,0,0,0,4.38-.86,7,7,0,0,0,3.57-2.45c.43-.65.66-1,.64-1.47,0-1.66-3.29-3.16-5.61-3.6A17.26,17.26,0,0,0,51,61.55l-.37,0a17,17,0,0,1-2.16.16c-2.64,0-3.42-.49-3.66-.67a4.06,4.06,0,0,1-1.35-2,16,16,0,0,1-.89-5.8A14,14,0,0,1,38,51.46l-.54-.36L37.27,51l0-.2,0-.12a2,2,0,0,1-.36.61,2.65,2.65,0,0,1-2,.75,17.61,17.61,0,0,0-3.55.57l-.38.09c-.11,1.72-.18,2.45-.31,3.32a7.4,7.4,0,0,1-.21,1,7.67,7.67,0,0,0-.19.91l0,.26a2.4,2.4,0,0,1-.45,1.3,2.5,2.5,0,0,1-1.69.76A2.8,2.8,0,0,1,26.62,60a6.28,6.28,0,0,0-1.14-.33c-.62-.11-1.55-.28-2,.17a1.11,1.11,0,0,0-.28.43l-.1.3-.32,0-1.47.12c-1.14.08-1.88.11-2.44.14a7.39,7.39,0,0,0-1.77.19,4.93,4.93,0,0,0-2.62,1.36,2.84,2.84,0,0,0-.86,1.9c0,.47.31.93,1,1.91A15,15,0,0,0,16,68.11c1.59,1.65,5.12,2.56,7.9,2.86a42.49,42.49,0,0,0,5.32,0l3.18-.06C35.13,70.86,36.52,70.84,37.34,70.84Zm6.19-18.39c.71.14,1.52.27,2.43.38.07,0,4.85.84,8,.18a.49.49,0,0,0,.17-.08.68.68,0,0,0,.1-.42c0-1.11-1.26-3.09-1.74-3.75-.16-.22-.75-1.34-2.43-4.55-.88-1.68-1.49-2.94-1.93-3.86-1-2-1.21-2.49-2-2.87a21.58,21.58,0,0,0-3.33-1.15l-.19,0a4.12,4.12,0,0,1-2.08-1,4.66,4.66,0,0,1-1-1.6,7.93,7.93,0,0,1-.63-2.1l-.06-.39.36-.15a7.47,7.47,0,0,0,2.47-1.66,7.6,7.6,0,0,0,2-4.14l.11-.7.63.34a.43.43,0,0,0,.28.08c.5,0,1-1.39,1.12-2.55a2.67,2.67,0,0,0-.07-1.09,2.58,2.58,0,0,0-.41-.83l-.1-.14v-.17a10.12,10.12,0,0,0-6.31-9.69l-.88-.37.8-.51c.31-.21,1.88-1.3,1.93-2.84a3.29,3.29,0,0,0-1.19-2.49A4.81,4.81,0,0,0,35.85,3a4.77,4.77,0,0,0-3.27,2.11A3.19,3.19,0,0,0,32,7.72,3.37,3.37,0,0,0,33.8,9.61l.78.4-.74.47a10.33,10.33,0,0,0-2.12,1.77,11.85,11.85,0,0,0-2.85,8.16v.22l-.16.15a2.4,2.4,0,0,0-.48.63h0s-.55,1.26,1,4.36a.44.44,0,0,0,.18.21.49.49,0,0,0,.37,0l.39-.15,1.13,1.94c.11.18.17.29.22.36a9.69,9.69,0,0,0,1.55,2,8.06,8.06,0,0,0,2,1.4l.27.12v.29a4.16,4.16,0,0,1-.76,2.81,5.13,5.13,0,0,1-2.82,1.64,7.37,7.37,0,0,1-1.72.35,6.36,6.36,0,0,0-.86.14c-1.25.31-2.05,1-3.74,2.69A32.3,32.3,0,0,0,22,43.59c-.46.63-1.31,2.27-3,5.52a3,3,0,0,0-.46,2,2.65,2.65,0,0,0,.4.88c.67.88,3.12.66,8.51.2l.72-.06a17.13,17.13,0,0,0,1.86-.3c.06-1,.11-1.77.12-2.22-.66,0-1.33-.06-2-.06a42.38,42.38,0,0,0-4.5.23L22,50l1.28-1.06a21.19,21.19,0,0,0,3.51-3.7A21.83,21.83,0,0,0,28.6,42.3l1.2-2.36-.26,2.64a8.14,8.14,0,0,0,.25,3.05,6.84,6.84,0,0,0,.63,1.54A5.68,5.68,0,0,1,31,48.72c1.16.08,2.31.22,3.45.41A34.76,34.76,0,0,1,35.25,45l0-.19c.69-2.85,1-3.49,1.52-3.44l.09,0c.39-.07.83-.13,1.77,3.58A24.59,24.59,0,0,1,39.35,49c1.3-.05,2.61-.05,3.91,0l.26-.45a7,7,0,0,0,.42-.78,5.74,5.74,0,0,0,.29-3.32l1-.22a7.84,7.84,0,0,0,1,2.17,10.15,10.15,0,0,0,.68.92,16.1,16.1,0,0,0,2.35,2.39l1.45,1.19-1.85-.31c-1.43-.24-2.87-.42-4.31-.52l-.61,0q-.06.15-.12.33A5.57,5.57,0,0,0,43.53,52.45Zm-5.36-2.06.34.22a13,13,0,0,0,4,1.62A6.62,6.62,0,0,1,42.81,50l0-.08c-1.3,0-2.61,0-3.92,0l-.49,0,0-.49a24.85,24.85,0,0,0-.69-4.37c-.1-.4-.21-.8-.31-1.16,0,.4,0,.86,0,1.37,0,.24.05.5.08.77h0v.08A41.31,41.31,0,0,0,38.17,50.39Zm-7-.66c0,.39,0,1-.1,1.92l.08,0a18.61,18.61,0,0,1,3.73-.6,1.76,1.76,0,0,0,1.25-.41,1,1,0,0,0,.21-.4,12.28,12.28,0,0,0,.23-3.94v-.05c0-.25-.05-.49-.07-.72s-.05-.67-.07-1c-.05.18-.09.34-.12.47l0,.18a35.86,35.86,0,0,0-.81,4.57l-.06.53-.52-.09C33.61,50,32.37,49.83,31.13,49.73ZM44.38,49h.18c.92.07,1.84.16,2.76.28a16.64,16.64,0,0,1-1.25-1.4c-.4-.5-.61-.8-.75-1l-.07-.11a5.92,5.92,0,0,1-.39,1.34A8.1,8.1,0,0,1,44.38,49Zm-15.84-4.6c-.3.48-.63,1-1,1.42A21.4,21.4,0,0,1,25,48.7c1-.07,2.07-.1,3.1-.1.61,0,1.23,0,1.84,0a5.93,5.93,0,0,0-.45-1,8.09,8.09,0,0,1-.71-1.73A9.2,9.2,0,0,1,28.54,44.42Z" transform="translate(-12.59 -2)"/><path class="cls-1" d="M31.49,23a1.48,1.48,0,0,0,2.78,0" transform="translate(-12.59 -2)"/><path class="cls-1" d="M38.68,22.62a1.4,1.4,0,0,0,2.78,0" transform="translate(-12.59 -2)"/><path class="cls-2" d="M38.68,43.76h0a.25.25,0,0,1-.25-.25A3.49,3.49,0,0,0,37.58,41a1.06,1.06,0,0,0-.67-.37h0c-.6,0-1.49,1.14-1.47,2.82a.25.25,0,0,1-.25.25h0a.25.25,0,0,1-.25-.25c0-1.88,1-3.3,2-3.32a1.62,1.62,0,0,1,1,.52,4,4,0,0,1,1,2.9A.24.24,0,0,1,38.68,43.76Z" transform="translate(-12.59 -2)"/><path class="cls-3" d="M44.62,36.32c-.57-.17-1.15-.33-1.73-.48h0l-.16,0a7.57,7.57,0,0,1-1,4,7.77,7.77,0,0,1-3.93,3.38c-.25-.63-.65-1.49-1-1.44-.13,0-.21.16-.36.42a3.18,3.18,0,0,0-.38,1,5.65,5.65,0,0,1-3.26-2.94,29.64,29.64,0,0,1-1-4.22l0-.16-.23.07a8,8,0,0,1-.9.24l-.52.09a14.64,14.64,0,0,1-.52,4.49A13.81,13.81,0,0,1,29,42.53a8.77,8.77,0,0,0,.26,3.24,26.71,26.71,0,0,0,1.32,3.42l.47.05,1.57.19,2.19.26c.22-1.53.43-2.78.6-3.7.39-2.1.28-1,.44-2a8.12,8.12,0,0,1,.62-1.87c.08-.18.18-.4.36-.42s.41.25.66.74a9,9,0,0,1,.82,2.76c0,.2.09.38.12.49.07.3.1.44.15.67,0,0,0,.16.07.34a24.91,24.91,0,0,1,.2,2.74l1.65-.06c1.06,0,2.07,0,3,0,.27-.55.57-.93.83-1.52a7.34,7.34,0,0,0,.32-3.6c-.17-2.46-.49-2.78-.54-4.38A12.6,12.6,0,0,1,44.62,36.32Z" transform="translate(-12.59 -2)"/><path class="cls-1" d="M35.28,50.25l-.49-.06-2.19-.27L31,49.74l-.74-.09-.12-.25a24.62,24.62,0,0,1-1.35-3.5,9.28,9.28,0,0,1-.28-3.42l0-.15a13.31,13.31,0,0,0,.64-1.8,14,14,0,0,0,.5-4.33v-.45l.44-.07.48-.08c.15,0,.46-.1.86-.22l.77-.25.13.72A29.33,29.33,0,0,0,33.33,40a5,5,0,0,0,2.5,2.43,2.65,2.65,0,0,1,.23-.48,1,1,0,0,1,.74-.69.78.78,0,0,1,.59.18,2.24,2.24,0,0,1,.48.63l.2.4,0,.07a7,7,0,0,0,4.13-6.69l0-.66.8.2c.59.14,1.17.31,1.75.48l.46.15-.12.46a12.35,12.35,0,0,0-.42,3.49,10.18,10.18,0,0,0,.2,1.73,19.38,19.38,0,0,1,.34,2.62,8,8,0,0,1-.36,3.84c-.16.34-.32.62-.48.9a4.86,4.86,0,0,0-.36.64l-.15.3-.33,0c-1,0-2-.05-3,0l-1.64,0-.51,0v-.51a24.38,24.38,0,0,0-.19-2.68l-.07-.31c0-.18-.06-.3-.1-.47l-.17-.69a9.5,9.5,0,0,0-.49-2c-.08-.21-.16-.38-.22-.52a.91.91,0,0,1-.07-.14l-.15-.27c-.13.3-.23.58-.31.82l-.13.58,0,0c-.05.19-.07.31-.07.31a2.21,2.21,0,0,1-.14.6,8.37,8.37,0,0,0-.3,1.37c-.21,1.18-.42,2.42-.59,3.68ZM31,48.72l.19,0,1.56.18,1.72.21c.16-1.11.34-2.2.53-3.24a7.55,7.55,0,0,1,.36-1.58,2.56,2.56,0,0,0,.08-.38,3.54,3.54,0,0,1,.13-.57,6.17,6.17,0,0,1-3.13-3,27.74,27.74,0,0,1-.92-3.92c-.29.09-.52.13-.64.16l-.11,0a14.82,14.82,0,0,1-.55,4.2,14,14,0,0,1-.65,1.85,8.19,8.19,0,0,0,.26,3A23,23,0,0,0,31,48.72Zm8.15-2.43s0,.16.07.35A22.43,22.43,0,0,1,39.37,49q.57,0,1.17,0c.9,0,1.82,0,2.73,0,.08-.15.16-.29.25-.43a7,7,0,0,0,.42-.78,6.91,6.91,0,0,0,.28-3.37,18.63,18.63,0,0,0-.32-2.51A11.18,11.18,0,0,1,43.68,40a12.82,12.82,0,0,1,.34-3.3l-.79-.22a8,8,0,0,1-4.77,7,10.85,10.85,0,0,1,.38,1.7l.16.64.11.5Z" transform="translate(-12.59 -2)"/><path class="cls-3" d="M55.89,61.19a18.21,18.21,0,0,0-5-.14,22.65,22.65,0,0,1-2.49.2c-2.44,0-3.14-.42-3.36-.58a3.58,3.58,0,0,1-1.17-1.79,15.88,15.88,0,0,1-.85-6,31.51,31.51,0,0,1-3.06-1c-1.28-.5-.91-.52-1.64-.81a1,1,0,0,1-.49-.32,1.47,1.47,0,0,1-.25-.68c-.1-.47-.14-.71-.16-.88a14.66,14.66,0,0,0-.34-1.89c0,.16,0,.39,0,.68a9.56,9.56,0,0,1-.17,1.84c-.17.72-.37,1-.56,1.1a1,1,0,0,1-.33.16,5.35,5.35,0,0,1-1.9.42,14.54,14.54,0,0,0-3.68.8,2.06,2.06,0,0,1,0,.21,10.47,10.47,0,0,1-.32,3.42c-.18,1.13-.2.75-.39,1.91-.12.73-.14,1-.39,1.32a2,2,0,0,1-1.35.58H27.8l.22.11c1,.55,1.24.83,1.78,1.08a3.84,3.84,0,0,0,1.93.29,8,8,0,0,1,1.34-.14,3.86,3.86,0,0,1,1.25.25,2.66,2.66,0,0,1,1.17.92,3.36,3.36,0,0,1,.6,1.09l1.24.07A10.39,10.39,0,0,1,36.27,65,9.63,9.63,0,0,1,35,66.25a40.37,40.37,0,0,1-5.73-2.62c-.14-.09-.82-.52-1.77-1.06-.73-.41-1.09-.62-1.35-.73-1.57-.7-2.48-.51-3.15-1.35a2.18,2.18,0,0,1-.26-.41c-.65.08-1.18.11-1.52.13a28.65,28.65,0,0,0-3.79.24c-.16,0-.32.06-.5.11a5.31,5.31,0,0,0-2.87,1.5,3.27,3.27,0,0,0-1,2.26,4.61,4.61,0,0,0,1.05,2.17,16.05,16.05,0,0,0,1.52,2c2.23,2.32,7.39,2.92,8.21,3,1,.11,1.21.08,8.56-.06l4.24-.07.18-.21A6.52,6.52,0,0,0,38,68.9a7.75,7.75,0,0,0,.25-1.29l1.75.23c3,.62,5.11,1.18,6.58,1.61a23,23,0,0,0,4.87,1c.55,0,1,.07,1.33.08a12.35,12.35,0,0,0,4.62-.83A7.31,7.31,0,0,0,61.18,67a3,3,0,0,0,.73-1.76C61.84,63.23,58.32,61.66,55.89,61.19Z" transform="translate(-12.59 -2)"/><path class="cls-1" d="M25.25,72A12.48,12.48,0,0,1,23.82,72c-1.44-.16-6.29-.85-8.52-3.16a17.11,17.11,0,0,1-1.57-2,4.89,4.89,0,0,1-1.14-2.43,3.77,3.77,0,0,1,1.12-2.61,5.89,5.89,0,0,1,3.11-1.66l.55-.11a15,15,0,0,1,2.53-.2c.38,0,.81,0,1.31,0,.34,0,.86-.05,1.49-.12l.35,0,.16.31a1.55,1.55,0,0,0,.2.32c.29.36.63.46,1.31.65a9.29,9.29,0,0,1,1.65.55c.28.13.65.34,1.39.75.93.52,1.6.94,1.78,1.06a39.9,39.9,0,0,0,5.38,2.49,9,9,0,0,0,1-1,7.81,7.81,0,0,0,.6-.82l-.76,0-.1-.32a3.29,3.29,0,0,0-.51-.94,2.46,2.46,0,0,0-1-.77,3.52,3.52,0,0,0-1.09-.21,2.59,2.59,0,0,0-.68.06,5.77,5.77,0,0,1-.61.08,4.42,4.42,0,0,1-2.17-.34,4.28,4.28,0,0,1-.72-.43,9.7,9.7,0,0,0-1.09-.66l-.18-.09-2.07-.93,2.26,0H28a1.53,1.53,0,0,0,1-.4c.12-.15.15-.29.23-.81l.05-.27a7.69,7.69,0,0,1,.21-1,8.18,8.18,0,0,0,.18-.9c.05-.33.11-.63.16-.9A7.15,7.15,0,0,0,30,52.58l-.1-.63.41-.13A15.12,15.12,0,0,1,34.1,51a5,5,0,0,0,1.75-.39.65.65,0,0,0,.21-.1s.21-.15.36-.8A9.54,9.54,0,0,0,36.58,48c0-.27,0-.5,0-.66l-.06-4.46,1,4.34a16.07,16.07,0,0,1,.36,2,8.12,8.12,0,0,0,.15.83c.07.31.09.4.15.47a.81.81,0,0,0,.27.17,2.58,2.58,0,0,1,.66.33,4.43,4.43,0,0,0,1,.47,27.61,27.61,0,0,0,3,1l.38.11v.4a15.4,15.4,0,0,0,.82,5.83,3,3,0,0,0,1,1.56,5.78,5.78,0,0,0,3,.48,18.41,18.41,0,0,0,2.06-.15l.38-.05A18.64,18.64,0,0,1,56,60.7h0c2.44.47,6.34,2.12,6.42,4.56a3.42,3.42,0,0,1-.81,2.06,7.8,7.8,0,0,1-4,2.82,12.53,12.53,0,0,1-4.8.86c-.33,0-.81,0-1.38-.08a23.59,23.59,0,0,1-4.83-1l-.13,0c-1.91-.56-4.11-1.1-6.54-1.6l-1.22-.16c0,.29-.12.58-.2.87a6.94,6.94,0,0,1-1.22,2.4l-.21.24-.14.16h-.22l-4.23.07L29.26,72C27.11,72,26,72,25.25,72ZM22.49,60.61c-.51.06-.93.08-1.22.1-.52,0-.95,0-1.35,0a14.79,14.79,0,0,0-2.38.18l-.47.1a4.93,4.93,0,0,0-2.62,1.36,2.84,2.84,0,0,0-.86,1.9c0,.47.31.93,1,1.91A15,15,0,0,0,16,68.11c1.59,1.65,5.12,2.56,7.9,2.86a42.49,42.49,0,0,0,5.32,0l3.18-.06,4-.07,0,0a6,6,0,0,0,1-2,6.88,6.88,0,0,0,.23-1.2l.05-.52,2.27.3q3.73.78,6.65,1.63l.13,0a22.62,22.62,0,0,0,4.64.91c.54,0,1,.07,1.31.08a11.58,11.58,0,0,0,4.42-.79,6.91,6.91,0,0,0,3.57-2.45c.43-.65.66-1,.64-1.47,0-1.66-3.29-3.16-5.61-3.6A17.26,17.26,0,0,0,51,61.55l-.37,0a17,17,0,0,1-2.16.16c-2.64,0-3.42-.49-3.66-.67a4.06,4.06,0,0,1-1.35-2,16,16,0,0,1-.89-5.81c-.7-.2-1.74-.51-2.73-.9a5.34,5.34,0,0,1-1.18-.57,2.68,2.68,0,0,0-.46-.23,1.51,1.51,0,0,1-.69-.47,1.26,1.26,0,0,1-.26-.5,1.69,1.69,0,0,1-.55.75,1.84,1.84,0,0,1-.47.24,6,6,0,0,1-2,.44,13.67,13.67,0,0,0-3.14.65,7.93,7.93,0,0,1-.19,2.48c-.05.27-.1.55-.15.88a7.4,7.4,0,0,1-.21,1,7.67,7.67,0,0,0-.19.91l0,.26a2.4,2.4,0,0,1-.45,1.3,2,2,0,0,1-.6.47l.27.18a3.87,3.87,0,0,0,.59.36,3.37,3.37,0,0,0,1.68.24,2.6,2.6,0,0,0,.48-.07,3.71,3.71,0,0,1,.91-.07,4.64,4.64,0,0,1,1.41.28,3.16,3.16,0,0,1,1.36,1.05,3.62,3.62,0,0,1,.58.95l1.69.1-.36.69a9.86,9.86,0,0,1-1.12,1.66,10.21,10.21,0,0,1-1.31,1.32l-.23.19-.28-.11A42.13,42.13,0,0,1,29,64.05c-.2-.13-.85-.54-1.76-1-.71-.4-1.07-.6-1.31-.71a10.83,10.83,0,0,0-1.49-.5,3,3,0,0,1-1.84-1A1.33,1.33,0,0,1,22.49,60.61Z" transform="translate(-12.59 -2)"/><path class="cls-2" d="M31.49,23a1.24,1.24,0,0,0,.62.56,2,2,0,0,0,1.55,0,1.26,1.26,0,0,0,.61-.58,1,1,0,0,1-.4.9,1.6,1.6,0,0,1-1,.34,1.63,1.63,0,0,1-1-.33A1,1,0,0,1,31.49,23Z" transform="translate(-12.59 -2)"/><path class="cls-2" d="M38.68,22.62a1.49,1.49,0,0,0,1.39,1,1.52,1.52,0,0,0,1.39-1,1.22,1.22,0,0,1-.32,1,1.42,1.42,0,0,1-1.06.47A1.46,1.46,0,0,1,39,23.65,1.23,1.23,0,0,1,38.68,22.62Z" transform="translate(-12.59 -2)"/><path class="cls-3" d="M32.67,10.27a.25.25,0,0,1-.12-.47,8.66,8.66,0,0,1,4.07-1h0a8.67,8.67,0,0,1,3.5.75.25.25,0,0,1,.12.33.24.24,0,0,1-.33.13,8,8,0,0,0-3.29-.71h0a8.13,8.13,0,0,0-3.83,1Z" transform="translate(-12.59 -2)"/><path class="cls-2" d="M36.9,42a31.89,31.89,0,0,1,.34,4.25,33.7,33.7,0,0,1-.15,4.26,32,32,0,0,1-.35-4.25A33.71,33.71,0,0,1,36.9,42Z" transform="translate(-12.59 -2)"/><path class="cls-1" d="M44.94,20.29a19.25,19.25,0,0,1-4.57-3.19,19,19,0,0,1-3.5-4.51,15.26,15.26,0,0,1-3,4.32,15.08,15.08,0,0,1-5.49,3.51" transform="translate(-12.59 -2)"/><path class="cls-2" d="M44.94,20.29a17.25,17.25,0,0,1-4.75-3.11,18.28,18.28,0,0,1-3.54-4.47l.44,0a14.67,14.67,0,0,1-3.56,4.8,14.19,14.19,0,0,1-5.16,2.93,16.63,16.63,0,0,0,4.9-3.21A15.94,15.94,0,0,0,35.18,15a15.53,15.53,0,0,0,1.46-2.53l.21-.44.23.43A20.44,20.44,0,0,0,44.94,20.29Z" transform="translate(-12.59 -2)"/><path class="cls-2" d="M36,28.83a2,2,0,0,1,1-.25,2,2,0,0,1,1,.25,2,2,0,0,1-1,.25A2,2,0,0,1,36,28.83Z" transform="translate(-12.59 -2)"/><path class="cls-2" d="M37.4,38.41a6,6,0,0,1-1-.1,5.72,5.72,0,0,1-3.7-2.77.5.5,0,0,1,.19-.68.49.49,0,0,1,.68.19,4.45,4.45,0,0,0,7.72.26.5.5,0,0,1,.7-.12.51.51,0,0,1,.12.7A5.79,5.79,0,0,1,37.4,38.41Z" transform="translate(-12.59 -2)"/></g></svg>