<svg id="Хобби" xmlns="http://www.w3.org/2000/svg" viewBox="0 0 63.83 60.29"><defs><style>.cls-1{fill:#115071;}.cls-2{fill:#f7f7f7;}.cls-3{fill:#fc9500;}</style></defs><g id="Плавание"><rect class="cls-1" x="0.5" y="12.01" width="62.83" height="48.27" rx="1.61"/><path class="cls-2" d="M8.59,24.27H6.09a.5.5,0,0,1,0-1h2.5a.5.5,0,0,1,0,1Z" transform="translate(-5.59 -7.36)"/><path class="cls-2" d="M32.85,24.27H11.62a.5.5,0,0,1,0-1H32.85a.5.5,0,0,1,0,1Z" transform="translate(-5.59 -7.36)"/><path class="cls-2" d="M63.19,24.27H42a.5.5,0,0,1,0-1H63.19a.5.5,0,0,1,0,1Zm-24.27,0h-3a.5.5,0,0,1,0-1h3a.5.5,0,0,1,0,1Z" transform="translate(-5.59 -7.36)"/><path class="cls-2" d="M68.72,24.27h-2.5a.5.5,0,0,1,0-1h2.5a.5.5,0,0,1,0,1Z" transform="translate(-5.59 -7.36)"/><rect class="cls-3" x="19.93" y="15.41" width="18.2" height="4.7"/><rect class="cls-3" x="19.93" y="25.92" width="18.2" height="4.7"/><path class="cls-3" d="M34.32,19.37c-.07-4.23-2.59-6.91-4.3-6.8s-3.64,2.85-3.5,6.7l-.1,27.9-5.24-2.66Q21.1,29.59,21,14.67c1.44-3.92,4.68-6.71,8.11-6.9C34,7.49,39.24,12.46,39,19.37Z" transform="translate(-5.59 -7.36)"/><path class="cls-3" d="M55.46,19c-.06-4.23-2.59-6.91-4.3-6.8s-3.63,2.85-3.5,6.7q0,14.25-.08,28.5l-5.12-.5-.3-32.6c1.44-3.92,4.68-6.71,8.1-6.9,4.88-.28,10.13,4.69,9.9,11.6Z" transform="translate(-5.59 -7.36)"/><path class="cls-2" d="M46.51,48.37a8.37,8.37,0,0,1-5.17-1.95,7.81,7.81,0,0,0-5.11-1.85,6.85,6.85,0,0,0-4,1.39,7.62,7.62,0,0,1-4.53,1.51,9.25,9.25,0,0,1-5.62-1.95c-1.35-.9-2.52-1.67-4.4-1.35a7.91,7.91,0,0,0-3.1,1.39,8.48,8.48,0,0,1-4.88,1.71,9.77,9.77,0,0,1-3.58-.63.5.5,0,0,1-.3-.64.52.52,0,0,1,.65-.3,8.51,8.51,0,0,0,3.21.57,7.54,7.54,0,0,0,4.36-1.55,8.86,8.86,0,0,1,3.47-1.54c2.28-.38,3.73.58,5.12,1.51a8.44,8.44,0,0,0,5.06,1.78,6.68,6.68,0,0,0,4-1.36,7.84,7.84,0,0,1,4.49-1.54,8.72,8.72,0,0,1,5.71,2,7.49,7.49,0,0,0,4.7,1.77,8.29,8.29,0,0,0,5.16-2.17c1.53-1.15,3.11-2.34,5.63-1.92a8.55,8.55,0,0,1,2.74,1A15.63,15.63,0,0,0,64.53,46a21.34,21.34,0,0,0,4,.48.5.5,0,0,1,0,1h0a21.82,21.82,0,0,1-4.2-.51,16.5,16.5,0,0,1-4.64-1.74,7.29,7.29,0,0,0-2.43-.95c-2.1-.35-3.39.61-4.87,1.73a9.17,9.17,0,0,1-5.75,2.37Z" transform="translate(-5.59 -7.36)"/><path class="cls-2" d="M46.29,54.78a8.38,8.38,0,0,1-5.18-2A7.79,7.79,0,0,0,36,51a6.84,6.84,0,0,0-4,1.38,7.73,7.73,0,0,1-4.53,1.52h-.12a9.2,9.2,0,0,1-5.51-2c-1.35-.89-2.52-1.67-4.4-1.35A8.06,8.06,0,0,0,14.37,52,8.4,8.4,0,0,1,9.5,53.68a9.78,9.78,0,0,1-3.59-.63.5.5,0,0,1-.29-.65.49.49,0,0,1,.64-.29,9,9,0,0,0,3.22.57,7.55,7.55,0,0,0,4.35-1.56,9,9,0,0,1,3.47-1.54c2.28-.37,3.73.58,5.13,1.51a8.21,8.21,0,0,0,4.95,1.79h.1a6.78,6.78,0,0,0,4-1.36A7.71,7.71,0,0,1,36,50a8.7,8.7,0,0,1,5.7,2,7.43,7.43,0,0,0,4.61,1.78h.09a8.25,8.25,0,0,0,5.16-2.18c1.53-1.15,3.11-2.34,5.64-1.92a8.42,8.42,0,0,1,2.74,1.06,15.46,15.46,0,0,0,4.38,1.65,21.55,21.55,0,0,0,4,.49.49.49,0,0,1,.48.51.52.52,0,0,1-.51.49,22.64,22.64,0,0,1-4.19-.51,16.5,16.5,0,0,1-4.64-1.75A7.56,7.56,0,0,0,57,50.67c-2.1-.35-3.38.61-4.87,1.73a9.23,9.23,0,0,1-5.74,2.38Z" transform="translate(-5.59 -7.36)"/><path class="cls-2" d="M46.91,62.4a8.38,8.38,0,0,1-5.18-2,7.71,7.71,0,0,0-5.11-1.84,6.78,6.78,0,0,0-4,1.38,7.62,7.62,0,0,1-4.53,1.51H28a9.18,9.18,0,0,1-5.51-2c-1.35-.9-2.52-1.67-4.4-1.35A7.91,7.91,0,0,0,15,59.58a8.48,8.48,0,0,1-4.88,1.72,10,10,0,0,1-3.58-.64.5.5,0,1,1,.35-.93,9,9,0,0,0,3.22.57,7.58,7.58,0,0,0,4.35-1.56,8.86,8.86,0,0,1,3.47-1.54c2.28-.38,3.73.58,5.12,1.51a8.49,8.49,0,0,0,5.06,1.78,6.68,6.68,0,0,0,4-1.36,7.77,7.77,0,0,1,4.5-1.53,8.65,8.65,0,0,1,5.7,2A7.58,7.58,0,0,0,47,61.4a8.25,8.25,0,0,0,5.16-2.18c1.53-1.15,3.11-2.34,5.63-1.92a8.46,8.46,0,0,1,2.74,1.05A15.33,15.33,0,0,0,64.92,60a20.73,20.73,0,0,0,4,.48.5.5,0,0,1,.48.52.52.52,0,0,1-.51.48A21.15,21.15,0,0,1,64.7,61a16.5,16.5,0,0,1-4.64-1.74,7.51,7.51,0,0,0-2.43-1c-2.1-.35-3.39.61-4.87,1.73A9.23,9.23,0,0,1,47,62.4Z" transform="translate(-5.59 -7.36)"/></g></svg>