<svg id="Хобби" xmlns="http://www.w3.org/2000/svg" viewBox="0 0 61.94 56.03"><defs><style>.cls-1{fill:#115071;}.cls-2{fill:#fc9500;}.cls-3{fill:#f7f7f7;}</style></defs><g id="Фильмы"><polygon class="cls-1" points="61.44 19.95 61.44 54.01 55.53 50.79 55.53 23.16 61.44 19.95"/><path class="cls-1" d="M68.47,64.33l-6.91-3.76V32.35l6.91-3.76ZM62.56,60l4.91,2.67V30.27l-4.91,2.67Z" transform="translate(-6.53 -9.48)"/><polygon class="cls-2" points="55.53 23.16 55.53 50.79 30.16 36.98 55.53 23.16"/><path class="cls-1" d="M62.56,61.12,35.64,46.47,62.56,31.8ZM37.73,46.47l23.83,13V33.49Z" transform="translate(-6.53 -9.48)"/><rect class="cls-1" x="0.5" y="20.91" width="49.1" height="34.62" rx="2.34"/><path class="cls-1" d="M53.78,65.52H9.37a2.85,2.85,0,0,1-2.84-2.85V32.74A2.84,2.84,0,0,1,9.37,29.9H53.78a2.85,2.85,0,0,1,2.85,2.84V62.67A2.86,2.86,0,0,1,53.78,65.52ZM9.37,30.9a1.84,1.84,0,0,0-1.84,1.84V62.67a1.85,1.85,0,0,0,1.84,1.85H53.78a1.85,1.85,0,0,0,1.85-1.85V32.74a1.84,1.84,0,0,0-1.85-1.84Z" transform="translate(-6.53 -9.48)"/><circle class="cls-2" cx="36.08" cy="11.53" r="11.03"/><path class="cls-1" d="M42.61,32.55A11.54,11.54,0,1,1,54.15,21,11.54,11.54,0,0,1,42.61,32.55Zm0-22.07A10.54,10.54,0,1,0,53.15,21,10.55,10.55,0,0,0,42.61,10.48Z" transform="translate(-6.53 -9.48)"/><circle class="cls-3" cx="36.08" cy="11.53" r="4.34"/><path class="cls-1" d="M42.61,25.86A4.85,4.85,0,1,1,47.46,21,4.84,4.84,0,0,1,42.61,25.86Zm0-8.69A3.85,3.85,0,1,0,46.46,21,3.85,3.85,0,0,0,42.61,17.17Z" transform="translate(-6.53 -9.48)"/><circle class="cls-2" cx="12.33" cy="11.53" r="11.03"/><path class="cls-1" d="M18.86,32.55H18.6A11.55,11.55,0,0,1,7.32,20.76h0A11.55,11.55,0,0,1,18.85,9.48h.26a11.53,11.53,0,0,1-.25,23.06ZM8.32,20.79a10.56,10.56,0,0,0,10.3,10.76,10.38,10.38,0,0,0,7.52-2.92A10.53,10.53,0,1,0,8.32,20.79Z" transform="translate(-6.53 -9.48)"/><circle class="cls-3" cx="12.33" cy="11.53" r="4.34"/><path class="cls-1" d="M18.86,25.86h-.11A4.85,4.85,0,0,1,14,20.91h0a4.89,4.89,0,0,1,5-4.74,4.85,4.85,0,0,1-.1,9.69ZM15,20.93a3.85,3.85,0,0,0,3.76,3.93h.09A3.85,3.85,0,1,0,15,20.93Z" transform="translate(-6.53 -9.48)"/><path class="cls-3" d="M53.11,60H42a.5.5,0,0,1-.5-.5A.5.5,0,0,1,42,59H53.11a.5.5,0,0,1,.5.5A.51.51,0,0,1,53.11,60Z" transform="translate(-6.53 -9.48)"/><rect class="cls-2" x="5.26" y="33.48" width="24.55" height="17.31" rx="1.17"/><circle class="cls-3" cx="44.03" cy="25.12" r="2.55"/><path class="cls-1" d="M50.56,37.65h-.07a3.06,3.06,0,0,1-2.14-.94,3,3,0,0,1-.84-2.17h0a3,3,0,0,1,.94-2.14,3.07,3.07,0,0,1,2.18-.85,3.06,3.06,0,0,1,3,3.12A3.05,3.05,0,0,1,50.56,37.65Zm-2.05-3.09a2,2,0,0,0,2,2.09h.05a2.05,2.05,0,0,0,0-4.1h0a2.05,2.05,0,0,0-2.05,2Z" transform="translate(-6.53 -9.48)"/><circle class="cls-1" cx="12.33" cy="11.53" r="2.55"/><circle class="cls-1" cx="36.08" cy="11.53" r="2.55"/></g></svg>