<svg id="Behance" xmlns="http://www.w3.org/2000/svg" viewBox="0 0 24 24">
  <defs>
    <style>
      .cls-1 {
        fill: #115071;
      }

      .cls-2 {
        fill: #f7f7f7;
      }
    </style>
  </defs>
  <g>
    <circle class="cls-1" cx="12" cy="12" r="12"/>
    <path class="cls-2" d="M3.88,6.52H9.09A4.27,4.27,0,0,1,11.14,7,2.48,2.48,0,0,1,12.51,9a3.62,3.62,0,0,1-.06,1.09,2.13,2.13,0,0,1-1,1.38l-.16.09,0,0c.14.07.28.13.41.21a2.32,2.32,0,0,1,1.19,1.73,3.24,3.24,0,0,1-1.71,3.56,3.72,3.72,0,0,1-1.57.36L5,17.51H3.88Zm2.54,9.1c1,0,1.9,0,2.84-.06s1.36-.81,1.3-1.68a1.12,1.12,0,0,0-.9-1.09,2.25,2.25,0,0,0-.64-.1H6.42Zm0-4.77H8.87a3,3,0,0,0,.51-.06c.42-.11.81-.28.91-.76a2.09,2.09,0,0,0,0-.61.9.9,0,0,0-.75-.86A3.11,3.11,0,0,0,9,8.46c-.82,0-1.65,0-2.48,0l-.07,0Z"/>
    <path class="cls-2" d="M20.92,13.82H15.23A1.85,1.85,0,0,0,16,15.45a2.14,2.14,0,0,0,2.25,0,6.2,6.2,0,0,0,.42-.46c0-.05.09-.11.14-.11h2a1.81,1.81,0,0,1-.26.77,3.62,3.62,0,0,1-2.91,1.77,4.51,4.51,0,0,1-2.85-.61,3.18,3.18,0,0,1-1.53-2.18,5.76,5.76,0,0,1,.21-3.29A3.36,3.36,0,0,1,16,9.22a4.44,4.44,0,0,1,3.16.37,3.35,3.35,0,0,1,1.5,1.77A6.15,6.15,0,0,1,20.92,13.82Zm-5.66-1.37h3.52A1.64,1.64,0,0,0,17,10.79,1.69,1.69,0,0,0,15.26,12.45Z"/>
    <path class="cls-2" d="M14.81,7h4.4V8.07h-4.4Z"/>
  </g>
</svg>
