<svg id="Behance" xmlns="http://www.w3.org/2000/svg" viewBox="0 0 24 24">
  <defs>
    <style>
      .cls-1 {
        fill: #115071;
      }
    </style>
  </defs>
  <g id="WordPress">
    <path class="cls-1" d="M0,11.63c0-.11,0-.22,0-.32a11.74,11.74,0,0,1,2.79-7A11.83,11.83,0,0,1,8.17.64,12.22,12.22,0,0,1,10.32.13,12.4,12.4,0,0,1,12.6,0a11.78,11.78,0,0,1,6.1,2,11.91,11.91,0,0,1,4.8,6.53,12.16,12.16,0,0,1,.44,2.24,12.31,12.31,0,0,1,0,1.92,11.57,11.57,0,0,1-1.38,4.87A11.92,11.92,0,0,1,17,22.9a11.49,11.49,0,0,1-3.09.93c-.45.07-.91.11-1.36.14l-.15,0h-.73l-.14,0c-.5,0-1-.08-1.49-.16a12.05,12.05,0,0,1-8.09-5.37A11.7,11.7,0,0,1,.05,12.68c0-.11,0-.22,0-.33ZM12,.55A11.45,11.45,0,1,0,23.46,12,11.45,11.45,0,0,0,12,.55Z"/>
    <path class="cls-1" d="M13.45,7.18l.14,0,.95-.07.11,0A.43.43,0,0,0,15,6.6a.41.41,0,0,0-.44-.38c-.15,0-.29,0-.44,0-.8,0-1.61.1-2.42.1-.48,0-.95,0-1.43-.06L9.1,6.22a.44.44,0,0,0-.44.59.38.38,0,0,0,.3.26l.63.07.39,0a.19.19,0,0,1,.17.13c.3.84.6,1.67.91,2.51l.6,1.66a.28.28,0,0,1,0,.2C11,13.83,10.22,16,9.5,18.16a.78.78,0,0,1-.05.12L5.72,7.19l.13,0,.94-.08.15,0a.44.44,0,0,0,.32-.57.41.41,0,0,0-.39-.28H6.66l-1.31.08-1.18,0H3.46A10.25,10.25,0,0,1,18.91,4.38h-.06A1.75,1.75,0,0,0,17.17,5.7,2.1,2.1,0,0,0,17.23,7a5.4,5.4,0,0,0,.52,1.05c.21.36.43.72.62,1.09a4.93,4.93,0,0,1,.51,1.5,4.64,4.64,0,0,1,0,1.78c-.14.67-.35,1.31-.55,2-.37,1.21-.73,2.43-1.1,3.65l0,.11h0L13.48,7.29A.81.81,0,0,1,13.45,7.18Z"/>
    <path class="cls-1" d="M12.19,12.91l3.21,8.78a10.08,10.08,0,0,1-2.25.52,10.2,10.2,0,0,1-4-.36Z"/>
    <path class="cls-1" d="M7.51,21.22A10.26,10.26,0,0,1,2.62,7.84Z"/>
    <path class="cls-1" d="M21.08,7.15A10,10,0,0,1,22.24,11a10.06,10.06,0,0,1-1.5,6.39,10,10,0,0,1-3.54,3.45,1.09,1.09,0,0,1,.05-.14c.89-2.58,1.78-5.17,2.68-7.75.22-.64.45-1.27.67-1.91a9.35,9.35,0,0,0,.45-2,7.64,7.64,0,0,0,0-1.85.22.22,0,0,1,0-.08Z"/>
  </g>
</svg>
