<svg id="Behance" xmlns="http://www.w3.org/2000/svg" viewBox="0 0 24 24">
  <defs>
    <style>
      .cls-1 {
        fill: #115071;
      }

      .cls-2 {
        fill: #f7f7f7;
      }
    </style>
  </defs>
  <g id="Illustrators.ru">
    <g>
      <path class="cls-1" d="M12.92,1.36C13.83,1,14.08.08,13.17,0a.47.47,0,0,0-.42.24C12.59.64,12.51,1.36,12.92,1.36Z"/>
      <path class="cls-1" d="M20,12.2c-.13-.13-1.07-1.07-.75-1.85.61-1.43,2.48-1.27,3.24-1.21a.86.86,0,0,0,.32,0C24,8.51,22.59,6.9,22.09,8v.24c-.49.4-3.14,1.52-3.8,1.28-1.12-.42-1-1.31-.87-1.92a1.26,1.26,0,0,0,0-.49c-.05-.26-.28-.14-.46,0s-.17.08-.2,0l-.16-.16A6.91,6.91,0,0,1,18.7,4.25a1.39,1.39,0,0,1,.34-.2,1.52,1.52,0,0,0,.33-.2c-.13-1.14-.83-.13-1.24.47-.11.16-.2.28-.25.34l-.41.4A3.25,3.25,0,0,1,15.4,6.34c-.32-.21-.09-.38.16-.57a1,1,0,0,0,.33-.31c-.33-.33-.58,0-.81.34s-.33.45-.51.38-.08-.08-.08-.24c0-.44.51-.88,1-1.3a7.84,7.84,0,0,0,.58-.55l.14-.17c.45-.59.91-1.17.69-1.75a.31.31,0,0,1-.09-.12.42.42,0,0,0-.08-.12c-.61-.12-.54.55-.5,1,0,.15,0,.27,0,.31,0,.22-.56.61-1,1a5.38,5.38,0,0,0-.5.42,2.52,2.52,0,0,0-.5.68,2.67,2.67,0,0,1-.33.52,1.53,1.53,0,0,1-.44-.23l-.14-.09c-1.16-.88-.66-2.33-.08-3.29,0-.08-.17-.24-.33-.32a.7.7,0,0,0-.75.48,2.36,2.36,0,0,0,.23.44l.11.2c.08.32-.42,1.93-1.08,2.09a1.83,1.83,0,0,1-.52,0,1.23,1.23,0,0,0-.8.09,1.79,1.79,0,0,0-.35.47c-.25.39-.54.86-.81.81-.58-.1-.39-.46-.22-.79s.2-.38.14-.49c-.57-1-1.2.5-1.57,1.38a3.23,3.23,0,0,1-.25.54C6.39,8,4.82,9.23,3.83,9.15H2.67a.28.28,0,0,1,0,.12.28.28,0,0,0,0,.12l.09.12c.33.38.75.88.15,1.25a2.41,2.41,0,0,0-1.07,0s0,.14.13.27c.22.33.56.86-.21,1.09l-.17.08s-.13,0-.27,0c-.31-.08-.75-.19-.64.2s.51.36.9.26.92-.22,1,.46v.08c0,.17-.19.18-.34.2l-.24,0c-2.18.69-.16,2.13.48,2.59l.19.14c.1.41-.22.59-.53.77a1.25,1.25,0,0,0-.47.36c-.16.24.67.8.91,1a.68.68,0,0,1,.21.34.53.53,0,0,0,.12.22s.07.07.1.08a.16.16,0,0,0,.07,0c.14,0,.58.46.68.41s-.11-.41,0-.53a.19.19,0,0,1,.11,0,2.67,2.67,0,0,0,.46-1.55c0-1-.71-1.44-.55-2.17.07-.31.3-.73,1.07-1.14a3.32,3.32,0,0,0,.32-.5,3.24,3.24,0,0,0,.35-1.46c1.11.86,1.35,1.52,1.32,2s-.17.79.1,1.17.46.3.48.53-.34.4-.33.76a.68.68,0,0,0,.08.3c.34.68.33,1.64.7,2.25a2.61,2.61,0,0,0,2,1,12.34,12.34,0,0,1,.94-7.37,8.89,8.89,0,0,1-1,.79.63.63,0,0,0-.29.34.43.43,0,0,0,0,.26,6.73,6.73,0,0,1-.3,1.95c-.16.58.09,1.87,1.63,4.89a4.71,4.71,0,0,0,3.52-.4c2.05-1.26,2.22-4.18,1.43-6-.57-1.26-1.79-2.33-2-2.19s0,.46.13.81c1.73,3.05,1.4,7.07-1.82,7.23a1.31,1.31,0,0,1-1.73-.67,1.21,1.21,0,0,1,.56-1.41,1.48,1.48,0,0,0-1.23.08c-.5.33-.43,1-.85,1.15s-.6-.19-.72-.28c-1.23-.94.15-6.3-1.38-7.15-.8-.44-2.39.33-3,1.36a3,3,0,0,0-.24,1.48c-.07,2,.55,2.4.37,3.91-.13,1-.5,1.6-.23,1.82s1.06-.17,1.63-.53a.57.57,0,0,1,.07.23,1.16,1.16,0,0,1,0,.17,3.08,3.08,0,0,1-.33.88,3.41,3.41,0,0,0-.33.88L4.72,22c.19-.4.57-1.16,1-1.23.54.08.3.38,0,.74s-.57.75-.2,1a.66.66,0,0,0,.33-.17,1,1,0,0,0,0-.26c0-.46,0-1.28.8-.78s.46.6.24.87a.67.67,0,0,0-.08,1c.38.14.49-.1.62-.38A1.19,1.19,0,0,1,8,22.23c.43,0,.7.37.92.73s.31.48.48.48a1,1,0,0,0,.66-.32c.24-.2.44-.37,1.08-.08a.58.58,0,0,1,.33.64,1.3,1.3,0,0,0,.41-.36c.13-.15.25-.28.33-.28,1-.24,1,.36,1,.72,0,.12,0,.22.05.24v-.08l.16-.4c.21-1.14.91-.82,1.54-.53.39.18.75.34.94.13a1.36,1.36,0,0,0-.24-.59c-.11-.2-.21-.38-.17-.46C16,20.35,17,21,17.79,21.46a2,2,0,0,0,.83.37l.17-.16a1.37,1.37,0,0,0-.46-.78,1.39,1.39,0,0,1-.37-.5c-.3-.95.78-.94,1.44-.93.24,0,.42,0,.46,0,1-.65.69-1.38.44-2a2,2,0,0,1-.19-.84c0-.09.08-.33.25-.33l.11,0a.27.27,0,0,0,.22-.2s-.06-.1-.14-.17a1,1,0,0,1-.19-.23c0-.19.25-.32.46-.43s.28-.14.28-.21a.25.25,0,0,0-.08-.16.15.15,0,0,0,0-.07.24.24,0,0,0-.07-.09s0-.06,0-.08,0,0,0-.08l-.08-.08a1.35,1.35,0,0,0-.29-.18c-.15-.08-.2-.11-.37-.54a.74.74,0,0,1,.13-.58l0-.07c.33-.73.88-.39,1.47,0s1.18.74,1.67.18A4.08,4.08,0,0,1,20,12.2Z"/>
    </g>
    <g>
      <path class="cls-2" d="M12.6,15.16c-.17,3.19.26,4.45,1.13,4.19s1.42-.08.69.34c-3.74,2.11-3.32-1.76-2.8-6.55.15-1.4.31-2.88.38-4.31.22-1.84,1-1.76.78,2.81,0,.24,0,.45,0,.64C12.68,13.22,12.64,13.77,12.6,15.16Z"/>
      <path class="cls-2" d="M9.45,9.54a.65.65,0,1,1-.64-.62A.64.64,0,0,1,9.45,9.54Z"/>
      <path class="cls-2" d="M8.89,13.69c-.73,1-.43,4.41.09,5.12,1.08.46.95-3.44.47-4.91C9.28,13.65,9.11,13.53,8.89,13.69Z"/>
    </g>
  </g>
</svg>
