<svg id="Соц_сети" data-name="Соц сети" xmlns="http://www.w3.org/2000/svg" viewBox="0 0 24 24">
  <defs>
    <style>
      .cls-1 {
        fill: #115071;
      }

      .cls-2 {
        fill: #f7f7f7;
      }
    </style>
  </defs>
  <g id="HeadHunter">
    <path class="cls-1" d="M12.63,24H11.37l-.08,0c-.59-.08-1.19-.11-1.77-.24A11.8,11.8,0,0,1,2,18.55,11.66,11.66,0,0,1,.09,13.43L0,12.6V11.4a.5.5,0,0,0,0-.12c.08-.59.12-1.18.24-1.76A11.53,11.53,0,0,1,3.77,3.27a11.77,11.77,0,0,1,11-2.94,11.25,11.25,0,0,1,6,3.46,11.66,11.66,0,0,1,3,10.54,11.61,11.61,0,0,1-5.24,7.74,11.55,11.55,0,0,1-5.08,1.84Zm-1.11-7.14v-.11c0-1.49,0-3,0-4.47a9.28,9.28,0,0,0-.06-1.06,2.07,2.07,0,0,0-1.08-1.7,2.8,2.8,0,0,0-3.22.38c-.13.11-.23.24-.35.36l0,0v-4H4.82V16.85H6.77v-.21c0-1.18,0-2.37,0-3.55a7,7,0,0,1,.07-1,1.46,1.46,0,0,1,1.6-1.36,1,1,0,0,1,1.06,1c0,.39,0,.78.05,1.18v4Zm2.92,0v-.19c0-1.21,0-2.42,0-3.63a8.26,8.26,0,0,1,.09-1,1.45,1.45,0,0,1,1.59-1.32,1,1,0,0,1,1,.91,7.88,7.88,0,0,1,.06,1.09c0,1.31,0,2.63,0,3.94v.2h2v-.19c0-1.49,0-3,0-4.46a8.47,8.47,0,0,0-.08-1.13,2.05,2.05,0,0,0-1-1.51,2.83,2.83,0,0,0-3.42.42l-.25.27,0,0v-4H12.49V16.85Z"/>
    <path class="cls-2" d="M11.52,16.85h-2v-4c0-.4,0-.79-.05-1.18a1,1,0,0,0-1.06-1,1.46,1.46,0,0,0-1.6,1.36,7,7,0,0,0-.07,1c0,1.18,0,2.37,0,3.55v.21H4.82V6.19H6.77v4l0,0c.12-.12.22-.25.35-.36a2.8,2.8,0,0,1,3.22-.38,2.07,2.07,0,0,1,1.08,1.7,9.28,9.28,0,0,1,.06,1.06c0,1.49,0,3,0,4.47Z"/>
    <path class="cls-2" d="M14.44,16.85H12.49V6.19h1.95v4l0,0,.25-.27a2.83,2.83,0,0,1,3.42-.42,2.05,2.05,0,0,1,1,1.51,8.47,8.47,0,0,1,.08,1.13c0,1.49,0,3,0,4.46v.19h-2v-.2c0-1.31,0-2.63,0-3.94a7.88,7.88,0,0,0-.06-1.09,1,1,0,0,0-1-.91A1.45,1.45,0,0,0,14.53,12a8.26,8.26,0,0,0-.09,1c0,1.21,0,2.42,0,3.63Z"/>
  </g>
</svg>
