<svg id="Соц_сети" data-name="Соц сети" xmlns="http://www.w3.org/2000/svg" viewBox="0 0 24 24">
  <defs>
    <style>
      .cls-1 {
        fill: #115071;
      }
    </style>
  </defs>
  <g id="VK">
    <path class="cls-1" d="M12.17,24h-.38l-.41-.06c-.66-.08-1.33-.12-2-.26A11.93,11.93,0,0,1,.11,13.21,11.13,11.13,0,0,1,.33,9.39a11.81,11.81,0,0,1,6.8-8.32A11.31,11.31,0,0,1,12,0a12,12,0,0,1,2.23.23,11.6,11.6,0,0,1,6.93,4.1,11.57,11.57,0,0,1,2.72,7.15,2.3,2.3,0,0,0,.06.28v.37c0,.11-.05.21-.06.32-.08.67-.11,1.35-.25,2a11.6,11.6,0,0,1-4.08,6.69,11.55,11.55,0,0,1-7.13,2.72A1.28,1.28,0,0,0,12.17,24Zm5.45-6.67h0c.35,0,.7,0,1.05,0a2,2,0,0,0,.59-.12.46.46,0,0,0,.28-.68,2.58,2.58,0,0,0-.4-.66c-.46-.52-.95-1-1.43-1.51-.17-.18-.35-.35-.52-.54a.57.57,0,0,1-.07-.73c.08-.14.18-.29.28-.43.58-.8,1.17-1.59,1.73-2.4a3.63,3.63,0,0,0,.42-.89c.12-.34,0-.54-.29-.62a2.33,2.33,0,0,0-.37,0l-2.43,0c-.45,0-.53.07-.72.48-.34.7-.67,1.41-1.06,2.08a8.28,8.28,0,0,1-1,1.24c-.23.25-.48.17-.58-.16a2,2,0,0,1-.09-.59c0-.86,0-1.72,0-2.58a.71.71,0,0,0-.65-.8,8.14,8.14,0,0,0-2.56,0,1.09,1.09,0,0,0-.76.37C9,8.89,9,9,9.21,9a.78.78,0,0,1,.69.72c0,.63.08,1.27.08,1.91a2.87,2.87,0,0,1-.18.81c-.08.23-.26.28-.47.14A2.44,2.44,0,0,1,9,12.24a12.83,12.83,0,0,1-1.72-3,.8.8,0,0,0-.86-.58l-2.06,0c-.47,0-.63.25-.44.68A29.85,29.85,0,0,0,6.4,14a9,9,0,0,0,1.93,2.15,5.64,5.64,0,0,0,3.76,1.16c.82,0,.94-.14,1-1a2.5,2.5,0,0,1,.23-.84.42.42,0,0,1,.7-.15,7,7,0,0,1,.62.6c.24.24.45.51.7.75a1.81,1.81,0,0,0,1.48.61A7.12,7.12,0,0,1,17.62,17.29Z"/>
  </g>
</svg>
