<svg id="Соц_сети" data-name="Соц сети" xmlns="http://www.w3.org/2000/svg" viewBox="0 0 24 24">
  <defs>
    <style>
      .cls-1 {
        fill: #115071;
      }

      .cls-2 {
        fill: #f7f7f7;
      }
    </style>
  </defs>
  <g id="ЯМ">
    <circle class="cls-1" cx="12" cy="12" r="12"/>
    <path class="cls-2" d="M19.37,10.32c-.44-.25-.44-.25-.17-.69L20.79,7h-.74c-.93.07-1.87,0-2.8,0a4.23,4.23,0,0,1-.06-1.42V3.52L17,3.6c-.87.51-1.75,1-2.61,1.54-.27.17-.36.1-.49-.15-.52-.92-1.06-1.84-1.58-2.75-.62.9-1.08,1.89-1.64,2.83-.09.15-.14.26-.35.12-.72-.44-1.45-.86-2.17-1.29l-.72-.39V5.6c0,.45,0,.91,0,1.36,0,.06,0,.08-.08.07H6.89L5.71,7H3.83L5.54,9.82c.08.14.18.25,0,.37-.75.4-1.48.83-2.23,1.21a2.92,2.92,0,0,0-.69.45l2.85,1.56c.22.12.26.2.12.42-.4.64-.79,1.29-1.18,1.93-.16.28-.33.56-.51.86H7.37c.06,0,.08,0,.08.07,0,.45,0,.91,0,1.36v2.09l1-.52c.66-.4,1.32-.78,2-1.19.19-.11.22,0,.28.13l1,1.69c.22.39.44.77.69,1.19.53-.93,1-1.8,1.55-2.68.1-.35.26-.45.6-.21s.82.49,1.22.73l1.51.88V18a4.24,4.24,0,0,1,.06-1.42l2.71,0c.25-.05.52.07.8-.05-.57-.93-1.11-1.84-1.67-2.74-.13-.22-.12-.32.12-.45.84-.44,1.66-.9,2.48-1.36.11-.06.28-.08.32-.26ZM19,12.84c-.29.17-.77.24-.82.55s.29.56.46.85l1,1.64c.08.14,0,.09-.09.09H17.33c-.81,0-.81,0-.8.89s0,1.42,0,2.21l-2.31-1.39c-.35-.25-.48-.08-.64.24-.38.75-.81,1.48-1.27,2.28-.47-.83-.92-1.59-1.34-2.37-.15-.28-.27-.31-.53-.15-.62.38-1.25.74-1.88,1.11-.4.24-.48.19-.48-.26,0-.85,0-1.7,0-2.54l-.4,0H7.38L5.22,16c-.08,0-.2,0-.2,0a.34.34,0,0,1,.18-.27c.34-.72.8-1.37,1.2-2.05.13-.22.13-.32-.11-.45-.81-.42-1.6-.87-2.46-1.35l1.24-.69c.36-.2.72-.43,1.11-.6s.34-.35.16-.65C5.93,9.26,5.55,8.61,5.16,8a1.39,1.39,0,0,1-.11-.21c-.09-.14,0-.09.09-.09l2.24,0h.31l.4,0,0-.07c0-.8,0-1.61,0-2.42,0-.49.08-.53.51-.29L8.72,5c.58.34,1.18.66,1.75,1,.23.14.34.13.48-.13.42-.79.88-1.56,1.36-2.4l1.38,2.42c.09.16.17.29.38.18l2.46-1.49v2.5c0,.59,0,.59.57.59l.23,0a.06.06,0,0,1,.08,0h2.07c.06,0,.17,0,.09.09-.44.74-.87,1.49-1.33,2.22-.18.28-.11.38.16.52.78.42,1.55.86,2.39,1.32C20.15,12.18,19.55,12.5,19,12.84Z"/>
    <path class="cls-1" d="M18.6,14.24c-.17-.29-.5-.6-.46-.85s.53-.38.82-.55c.59-.34,1.19-.66,1.83-1-.84-.46-1.61-.9-2.39-1.32-.27-.14-.34-.24-.16-.52.46-.73.89-1.48,1.33-2.22.08-.14,0-.09-.09-.09H17.41a.06.06,0,0,0-.08,0l-.23,0c-.58,0-.58,0-.57-.59V4.58L14.07,6.07c-.21.11-.29,0-.38-.18L12.31,3.47c-.48.84-.94,1.61-1.36,2.4-.14.26-.25.27-.48.13C9.9,5.64,9.3,5.32,8.72,5l-.13-.09c-.43-.24-.51-.2-.51.29,0,.81,0,1.62,0,2.42l0,.07-.4,0H7.38l-2.24,0c-.07,0-.18,0-.09.09A1.39,1.39,0,0,0,5.16,8c.39.64.77,1.29,1.18,1.91.18.3.22.49-.16.65s-.75.4-1.11.6l-1.24.69c.86.48,1.65.93,2.46,1.35.24.13.24.23.11.45C6,14.3,5.54,15,5.2,15.67a.34.34,0,0,0-.18.27c0,.07.12.05.2,0l2.16,0h.31l.4,0c0,.84,0,1.69,0,2.54,0,.45.08.5.48.26.63-.37,1.26-.73,1.88-1.11.26-.16.38-.13.53.15.42.78.87,1.54,1.34,2.37.46-.8.89-1.53,1.27-2.28.16-.32.29-.49.64-.24l2.31,1.39c0-.79,0-1.5,0-2.21s0-.85.8-.89h2.15c.06,0,.17,0,.09-.09Zm-.79-1.84a2.19,2.19,0,0,1-.62.34,1.3,1.3,0,0,0-.77,1.84c.17.42.38.87,0,1.26s-.86.2-1.3,0a1.23,1.23,0,0,0-.73-.13,1.28,1.28,0,0,0-1.15.88c-.18.43-.36.91-.92.91s-.75-.47-.93-.9a1.31,1.31,0,0,0-1.85-.77A1.5,1.5,0,0,1,8.28,16a.88.88,0,0,1-.22-1,3.94,3.94,0,0,1,.18-.48,1.29,1.29,0,0,0-.71-1.71,6.36,6.36,0,0,1-.64-.32.7.7,0,0,1-.38-.73A1,1,0,0,1,7.09,11c.14-.07.3-.11.44-.18a1.29,1.29,0,0,0,.71-1.71A4.18,4.18,0,0,1,8,8.59a.76.76,0,0,1,.55-1,2.35,2.35,0,0,1,.95.21A1.31,1.31,0,0,0,11.39,7c.18-.43.36-.9.93-.9s.71.46.9.87a1.3,1.3,0,0,0,.69.78,1.21,1.21,0,0,0,1.14,0,2.56,2.56,0,0,1,.68-.21.72.72,0,0,1,.87.91,2.29,2.29,0,0,1-.18.56,1.29,1.29,0,0,0,.77,1.84,2.33,2.33,0,0,1,.62.34A.69.69,0,0,1,17.81,12.4Z"/>
    <path class="cls-2" d="M17.81,11.24a2.33,2.33,0,0,0-.62-.34,1.29,1.29,0,0,1-.77-1.84,2.29,2.29,0,0,0,.18-.56.72.72,0,0,0-.87-.91,2.56,2.56,0,0,0-.68.21,1.21,1.21,0,0,1-1.14,0A1.3,1.3,0,0,1,13.22,7c-.19-.41-.36-.87-.9-.87s-.75.47-.93.9a1.31,1.31,0,0,1-1.85.77,2.35,2.35,0,0,0-.95-.21.76.76,0,0,0-.55,1,4.18,4.18,0,0,0,.2.56,1.29,1.29,0,0,1-.71,1.71c-.14.07-.3.11-.44.18a1,1,0,0,0-.58.69.7.7,0,0,0,.38.73,6.36,6.36,0,0,0,.64.32,1.29,1.29,0,0,1,.71,1.71,3.94,3.94,0,0,0-.18.48.88.88,0,0,0,.22,1,1.5,1.5,0,0,0,1.26-.09,1.31,1.31,0,0,1,1.85.77c.18.43.36.91.93.9s.74-.48.92-.91a1.28,1.28,0,0,1,1.15-.88,1.23,1.23,0,0,1,.73.13c.44.17.91.38,1.3,0s.17-.84,0-1.26a1.3,1.3,0,0,1,.77-1.84,2.19,2.19,0,0,0,.62-.34A.69.69,0,0,0,17.81,11.24Zm-.88.9a1.92,1.92,0,0,0-1.1,2.7v0c.06.16.21.35.09.48s-.35,0-.51-.06a3.56,3.56,0,0,0-.72-.23,2,2,0,0,0-2.13,1.45c-.05.14-.1.33-.26.32s-.21-.2-.27-.35A2,2,0,0,0,10,15.09a2,2,0,0,0-.73.19c-.15.05-.31.22-.47.05s0-.32,0-.49a2,2,0,0,0-1-2.65l-.18-.07c-.16-.08-.42-.1-.41-.32s.25-.22.41-.27A2,2,0,0,0,8.79,8.77a.85.85,0,0,1-.09-.22c0-.1-.1-.21,0-.3s.18,0,.27,0a1.92,1.92,0,0,1,.37.15A2,2,0,0,0,12,7.29c.08-.19.11-.49.33-.48s.26.3.34.49a2.3,2.3,0,0,0,1.43,1.28c.18.08.38-.14.54.05l.93-.33c.12,0,.27-.14.38,0s0,.25,0,.36a2.32,2.32,0,0,0-.27,1.15,2,2,0,0,0,1.29,1.72c.19.07.49.1.49.33S17.11,12.07,16.93,12.14Z"/>
    <path class="cls-1" d="M16.91,11.5a2,2,0,0,1-1.29-1.72,2.32,2.32,0,0,1,.27-1.15c0-.11.15-.26,0-.36s-.26,0-.38,0l-.93.33c-.16-.19-.36,0-.54-.05A2.3,2.3,0,0,1,12.65,7.3c-.08-.19-.11-.49-.34-.49s-.25.29-.33.48A2,2,0,0,1,9.34,8.41,1.92,1.92,0,0,0,9,8.26c-.09,0-.19-.07-.27,0s0,.2,0,.3a.85.85,0,0,0,.09.22,2,2,0,0,1-1.17,2.76c-.16.05-.4.1-.41.27s.25.24.41.32l.18.07a2,2,0,0,1,1,2.65c-.07.17-.16.34,0,.49s.32,0,.47-.05a2,2,0,0,1,.73-.19A2,2,0,0,1,12,16.49c.06.15.09.35.27.35s.21-.18.26-.32a2,2,0,0,1,2.13-1.45,3.56,3.56,0,0,1,.72.23c.16.06.37.22.51.06s0-.32-.09-.48v0a1.92,1.92,0,0,1,1.1-2.7c.18-.07.47-.11.47-.31S17.1,11.57,16.91,11.5Zm-1.56.3a3.64,3.64,0,0,1-.1.79,3.57,3.57,0,0,1-.64,1.22,3.05,3.05,0,0,1-3.46.77,3,3,0,0,1-1.88-2.84c0-.09,0-.17,0-.26a3.06,3.06,0,0,1,2-2.49l.22-.06.23,0a2.71,2.71,0,0,1,.56-.05h.28l.24,0a3.55,3.55,0,0,1,1.55.72,3.13,3.13,0,0,1,1,2.17Z"/>
    <path class="cls-2" d="M14.37,9.56a3.6,3.6,0,0,0-1.55-.69,3.55,3.55,0,0,1,1.55.72,3.13,3.13,0,0,1,1,2.17A3,3,0,0,0,14.37,9.56ZM9.29,11.37c0,.13,0,.25,0,.37,0-.09,0-.17,0-.26a3.06,3.06,0,0,1,2-2.49A3,3,0,0,0,9.29,11.37Z"/>
    <path class="cls-2" d="M14.37,9.59a3.55,3.55,0,0,0-1.55-.72l-.24,0H12.3a2.71,2.71,0,0,0-.56.05l-.23,0L11.29,9a3.06,3.06,0,0,0-2,2.49c0,.09,0,.17,0,.26a3,3,0,0,0,1.88,2.84,3.05,3.05,0,0,0,3.46-.77,3.57,3.57,0,0,0,.64-1.22,3.64,3.64,0,0,0,.1-.79v0A3.13,3.13,0,0,0,14.37,9.59Zm-.64,4.15a3,3,0,0,1-.78.34,2.38,2.38,0,0,1-3-2.34v0a2.32,2.32,0,0,1,.38-1.17,2.4,2.4,0,0,1,2.47-1.06c.09,0,.19,0,.22.13a1.31,1.31,0,0,1,.76.28,2.3,2.3,0,0,1,1,1.86A2.33,2.33,0,0,1,13.73,13.74Z"/>
  </g>
</svg>
