<svg id="Соц_сети" data-name="Соц сети" xmlns="http://www.w3.org/2000/svg" viewBox="0 0 24 24">
  <defs>
    <style>
      .cls-1 {
        fill: #115071;
      }
    </style>
  </defs>
  <g id="Instagram">
    <path class="cls-1" d="M12.75,24h-1.5l-.18,0a11.72,11.72,0,0,1-6.41-2.48A11.8,11.8,0,0,1,.2,14.05c-.07-.42-.12-.86-.18-1.29V11.27l.09-.65A11.69,11.69,0,0,1,4.87,2.4,11.78,11.78,0,0,1,18,1.67a11.61,11.61,0,0,1,6,10.19,11.28,11.28,0,0,1-2,6.75,11.74,11.74,0,0,1-7.9,5.19C13.65,23.89,13.2,23.93,12.75,24ZM5.59,12c0,1,0,2,.1,3A3.4,3.4,0,0,0,9,18.33a50.88,50.88,0,0,0,6,0A3.36,3.36,0,0,0,18.31,15c.07-2,.07-4,0-6A3.36,3.36,0,0,0,15,5.7a50.55,50.55,0,0,0-6,0A3.39,3.39,0,0,0,5.69,9C5.62,10,5.62,11,5.59,12Z"/>
    <path class="cls-1" d="M12,6.82c.9,0,1.79,0,2.69,0a3.67,3.67,0,0,1,1,.19,2.15,2.15,0,0,1,1.43,1.86A7.59,7.59,0,0,1,17.22,10c0,1.61,0,3.21,0,4.82a3.23,3.23,0,0,1-.28,1.17,2,2,0,0,1-1.81,1.21c-1.15.07-2.31.09-3.46.09A22.41,22.41,0,0,1,9,17.16a2.24,2.24,0,0,1-2.22-2.39c0-1.84,0-3.68,0-5.51a2.34,2.34,0,0,1,1-2,2.7,2.7,0,0,1,1.51-.45C10.19,6.81,11.09,6.82,12,6.82ZM15.28,12A3.28,3.28,0,1,0,12,15.29,3.26,3.26,0,0,0,15.28,12Zm.89-3.42a.76.76,0,1,0-.76.77A.75.75,0,0,0,16.17,8.6Z"/>
    <path class="cls-1" d="M12,14.14a2.13,2.13,0,1,1,2.16-2.09A2.12,2.12,0,0,1,12,14.14Z"/>
  </g>
</svg>
