<svg id="Соц_сети" data-name="Соц сети" xmlns="http://www.w3.org/2000/svg" viewBox="0 0 24 24">
  <defs>
    <style>
      .cls-1 {
        fill: #115071;
      }
    </style>
  </defs>
  <path class="cls-1" d="M24,12.93c-.05.37-.09.74-.14,1.11a11.15,11.15,0,0,1-1.64,4.53,12.13,12.13,0,0,1-3.77,3.84,11.83,11.83,0,0,1-2.59,1.23A.6.6,0,0,1,15,23V19.88a3.31,3.31,0,0,0-.42-1.82c-.1-.16-.23-.31-.35-.47.47-.09.94-.15,1.4-.26a5,5,0,0,0,3.05-1.92,5.64,5.64,0,0,0,.91-2.62,6.71,6.71,0,0,0,0-2.19,4.36,4.36,0,0,0-1-1.95.38.38,0,0,1-.09-.43,4.06,4.06,0,0,0-.17-2.85.24.24,0,0,0-.17-.12,2.07,2.07,0,0,0-1.2.24c-.61.28-1.19.61-1.79.91a.59.59,0,0,1-.34.06,11.15,11.15,0,0,0-5.62,0,.51.51,0,0,1-.36-.08,9.09,9.09,0,0,0-2.44-1.1h0c-.55-.11-.65,0-.8.48a4.07,4.07,0,0,0,0,2.58.35.35,0,0,1,0,.24,4.88,4.88,0,0,0-1.1,3.88,6.72,6.72,0,0,0,.66,2.49A4.29,4.29,0,0,0,7.6,17.08c.7.24,1.43.37,2.16.55,0,0,0,0,0,0A2.6,2.6,0,0,0,9.08,19c0,.07-.05.17-.11.19a2.7,2.7,0,0,1-2.49,0,2.67,2.67,0,0,1-.87-.93A2.54,2.54,0,0,0,4.13,17a2.42,2.42,0,0,0-.76,0c-.17,0-.22.14-.11.29a1.37,1.37,0,0,0,.36.36,3.21,3.21,0,0,1,1.27,1.57,2.89,2.89,0,0,0,.63,1.05,2.72,2.72,0,0,0,1.78.66c.56,0,1.12,0,1.7,0,0,0,0,0,0,.11,0,.63,0,1.26,0,1.89s-.37.87-1,.67a11.78,11.78,0,0,1-6.76-5.88A11.67,11.67,0,0,1,.1,10.93,11.66,11.66,0,0,1,3,4.38,11.48,11.48,0,0,1,9.44.59,11.74,11.74,0,0,1,19.54,3a11.67,11.67,0,0,1,4.22,7c.08.42.11.85.17,1.27a1.84,1.84,0,0,0,.05.25Z"/>
</svg>
